<svg xmlns="http://www.w3.org/2000/svg" xmlns:xlink="http://www.w3.org/1999/xlink" width="1920" height="1080" viewBox="0 0 1920 1080">
  <defs>
    <linearGradient id="linear-gradient" x1="0.318" y1="0.217" x2="0.942" y2="1.087" gradientUnits="objectBoundingBox">
      <stop offset="0" stop-color="#97dffc"/>
      <stop offset="1" stop-color="#6236c1"/>
    </linearGradient>
  </defs>
  <g id="MainBg" transform="translate(0 0.036)">
    <rect id="Rectangle_126" data-name="Rectangle 126" width="1920" height="1079.963" fill="#fff"/>
    <path id="Background" d="M469.557,978.368a215.47,215.47,0,0,1-23.538-1.257,184.5,184.5,0,0,1-22.83-3.956,166.018,166.018,0,0,1-22.024-6.934,159.246,159.246,0,0,1-21.118-10.191,447.738,447.738,0,0,1-38.887-25.1A351.355,351.355,0,0,1,308.085,903.8a303.92,303.92,0,0,1-27.817-29.58,295.857,295.857,0,0,1-23.114-32.476,325.33,325.33,0,0,1-18.963-35.809,399.831,399.831,0,0,1-15.366-39.578c-8.805-26.638-16.054-56.8-22.159-92.217a12.479,12.479,0,0,0,9.386-4.964l37.913-50.313a12.5,12.5,0,0,0-9.976-20.028,12.614,12.614,0,0,0-5.5,1.266,12.366,12.366,0,0,0-4.5,3.713L196.209,646c-1.723-11.845-3.4-24.584-4.974-37.863l-35.941,47.7a8.418,8.418,0,0,1-3.059,2.525,8.588,8.588,0,0,1-3.74.861,8.5,8.5,0,0,1-6.786-13.622l46.766-62.06c-.41-3.861-.823-7.854-1.228-11.868l30.738-40.789a2.5,2.5,0,1,0-4-3.011l-27.472,36.455c-.342-3.487-.665-6.85-.962-10l-30.968,41.1a4,4,0,1,1-6.4-4.819l36.267-48.129c-1.626-17.925-3.3-37.949-5.109-61.214-2.5-32.127-4.156-62.495-4.918-90.26-.75-27.331-.666-53.285.25-77.14,1.772-46.088,6.642-86.636,14.889-123.96a520.1,520.1,0,0,1,14.079-51.34c5.211-15.787,11.141-31.245,18.129-47.257,6.336-14.521,13.5-29.383,21.9-45.435,7.213-13.785,15.281-28.36,25.39-45.871H983.158l-3.576,824.653c-2.088,1.363-9.486,5.292-33.056,12.344l15.926-21.134a6,6,0,1,0-9.591-7.228L927.416,842.4c-4.122,1.109-8.487,2.253-12.975,3.4l-37.7,50.025a6,6,0,1,1-9.59-7.228l28.8-38.215c-3.794.914-7.6,1.817-11.312,2.685l-65.092,86.379a9.892,9.892,0,0,1-3.6,2.97,10.1,10.1,0,0,1-4.4,1.014,9.912,9.912,0,0,1-6.013-2.015,10.016,10.016,0,0,1-1.969-14.011L854.44,859.9c-4.16.91-8.047,1.753-11.551,2.5-10.453,2.244-21.432,5.151-33.563,8.889-10.84,3.34-22.376,7.277-35.269,12.037-24.016,8.866-48.437,18.985-74.292,29.7l0,0c-38.247,15.848-77.8,32.235-116.693,44.6a503.411,503.411,0,0,1-57.744,15.006c-9.7,1.861-19.19,3.286-28.2,4.234A264.708,264.708,0,0,1,469.557,978.368ZM979.58,825.727h0l.006-1.074c.185-.122.336-.226.46-.32a2.542,2.542,0,0,0-.462,1.393Zm.468-1.4h0a1.042,1.042,0,0,1,.383-.368s.006,0,.008,0c.007.023-.092.141-.388.364Z" transform="translate(941 -0.037)" fill="url(#linear-gradient)"/>
    <g id="Shapes_decorations" data-name="Shapes decorations" transform="translate(127.559 102.5)">
      <g id="Group_33" data-name="Group 33" transform="translate(697.941)">
        <line id="Line_1" data-name="Line 1" y2="35" transform="translate(17.5 0)" fill="none" stroke="#f4f2f2" stroke-linecap="round" stroke-width="6"/>
        <line id="Line_2" data-name="Line 2" x1="35" transform="translate(0 17.5)" fill="none" stroke="#f4f2f2" stroke-linecap="round" stroke-width="6"/>
      </g>
      <g id="Group_34" data-name="Group 34" transform="translate(318.941 176.992) rotate(90)">
        <line id="Line_1-2" data-name="Line 1" y2="35" transform="translate(17.5 0)" fill="none" stroke="#f4f2f2" stroke-linecap="round" stroke-width="6"/>
        <line id="Line_2-2" data-name="Line 2" x1="35" transform="translate(0 17.5)" fill="none" stroke="#f4f2f2" stroke-linecap="round" stroke-width="6"/>
      </g>
      <g id="Group_35" data-name="Group 35" transform="translate(650.941 608.974) rotate(90)">
        <line id="Line_1-3" data-name="Line 1" y2="35" transform="translate(17.5 0)" fill="none" stroke="#f4f2f2" stroke-linecap="round" stroke-width="6"/>
        <line id="Line_2-3" data-name="Line 2" x1="35" transform="translate(0 17.5)" fill="none" stroke="#f4f2f2" stroke-linecap="round" stroke-width="6"/>
      </g>
      <g id="Group_36" data-name="Group 36" transform="translate(1260.941 707.963)">
        <line id="Line_1-4" data-name="Line 1" y2="35" transform="translate(17.5 0)" fill="none" stroke="#f4f2f2" stroke-linecap="round" stroke-width="6"/>
        <line id="Line_2-4" data-name="Line 2" x1="35" transform="translate(0 17.5)" fill="none" stroke="#f4f2f2" stroke-linecap="round" stroke-width="6"/>
      </g>
      <g id="Polygon_2" data-name="Polygon 2" transform="translate(1175.597 51.003) rotate(31)" fill="none" stroke-linecap="round">
        <path d="M37.4,3.012a2,2,0,0,1,3.467,0L76.539,65a2,2,0,0,1-1.733,3H3.458a2,2,0,0,1-1.733-3Z" stroke="none"/>
        <path d="M 39.13206481933594 10.02448272705078 L 8.646163940429688 62.99999618530273 L 69.61798095703125 62.99999618530273 L 39.13206481933594 10.02448272705078 M 39.13207244873047 2.009803771972656 C 39.80651092529297 2.009803771972656 40.48095321655273 2.343948364257812 40.86553573608398 3.012237548828125 L 76.53913879394531 65.00244140625 C 77.30643463134766 66.33576965332031 76.34403991699219 68 74.80567932128906 68 L 3.458465576171875 68 C 1.920120239257812 68 0.9577255249023438 66.33576965332031 1.725006103515625 65.00244140625 L 37.39860916137695 3.012237548828125 C 37.78319549560547 2.343948364257812 38.45763397216797 2.009803771972656 39.13207244873047 2.009803771972656 Z" stroke="none" fill="#f4f2f2"/>
      </g>
      <g id="Polygon_3" data-name="Polygon 3" transform="matrix(0.454, 0.891, -0.891, 0.454, 65.043, 662.833)" fill="none" stroke-linecap="round" stroke-linejoin="round">
        <path d="M62.358,0a2,2,0,0,1,1.73,1L84.1,35.5a2,2,0,0,1,0,2.007L64.088,72a2,2,0,0,1-1.73,1H22.322a2,2,0,0,1-1.73-1L.582,37.5a2,2,0,0,1,0-2.007L20.592,1a2,2,0,0,1,1.73-1Z" stroke="none"/>
        <path d="M 24.62617492675781 6 L 6.936164855957031 36.50000762939453 L 24.62615966796875 67 L 60.05384826660156 67 L 77.74382781982422 36.49998474121094 L 60.05384826660156 6 L 24.62617492675781 6 M 22.32206726074219 0 L 62.35794830322266 0 C 63.07106781005859 0 63.73021697998047 0.37969970703125 64.0880126953125 0.9965667724609375 L 84.09799957275391 35.49656677246094 C 84.45791625976562 36.11711502075195 84.45791625976562 36.88288497924805 84.09799957275391 37.50343322753906 L 64.0880126953125 72.00343322753906 C 63.73023223876953 72.62030029296875 63.07106781005859 73 62.35794830322266 73 L 22.32205200195312 73 C 21.60893249511719 73 20.94976806640625 72.62030029296875 20.59197998046875 72.00343322753906 L 0.5819854736328125 37.50343322753906 C 0.2220687866210938 36.88290023803711 0.2220687866210938 36.11711502075195 0.5819854736328125 35.49656677246094 L 20.59200286865234 0.9965667724609375 C 20.94978332519531 0.37969970703125 21.60895156860352 0 22.32206726074219 0 Z" stroke="none" fill="#f4f2f2"/>
      </g>
      <g id="Group_37" data-name="Group 37" transform="translate(1758.941 295.983) rotate(90)">
        <line id="Line_1-5" data-name="Line 1" y2="35" transform="translate(17.5 0)" fill="none" stroke="#f4f2f2" stroke-linecap="round" stroke-width="6"/>
        <line id="Line_2-5" data-name="Line 2" x1="35" transform="translate(0 17.5)" fill="none" stroke="#f4f2f2" stroke-linecap="round" stroke-width="6"/>
      </g>
      <g id="Polygon_4" data-name="Polygon 4" transform="matrix(0.966, -0.259, 0.259, 0.966, 1396.988, 885.85)" fill="none" stroke-linecap="round">
        <path d="M22.785,3.012a2,2,0,0,1,3.467,0l21.06,36.6a2,2,0,0,1-1.733,3H3.458a2,2,0,0,1-1.733-3Z" stroke="none"/>
        <path d="M 24.51885986328125 10.02448272705078 L 8.646175384521484 37.6065559387207 L 40.39156341552734 37.6065559387207 L 24.51885986328125 10.02448272705078 M 24.51886558532715 2.009792327880859 C 25.19330406188965 2.009792327880859 25.86774063110352 2.343940734863281 26.25232315063477 3.012233734130859 L 47.31272125244141 39.60900115966797 C 48.08002471923828 40.94232559204102 47.11761093139648 42.60654449462891 45.57926940917969 42.6065559387207 L 3.458469390869141 42.6065559387207 C 1.920124053955078 42.6065559387207 0.9577102661132812 40.94232559204102 1.725013732910156 39.60900115966797 L 22.785400390625 3.012233734130859 C 23.16999053955078 2.343940734863281 23.84442901611328 2.009792327880859 24.51886558532715 2.009792327880859 Z" stroke="none" fill="#f4f2f2"/>
      </g>
    </g>
    <g id="MainGraphic" transform="translate(1059 -5.037)">
      <g id="AnimatedImage" transform="translate(212.064 355.017)">
        <g id="RightDecorations" transform="translate(153.56)">
          <rect id="Rectangle_53" data-name="Rectangle 53" width="14" height="14" transform="translate(248.376 11)" fill="#97dffc"/>
          <path id="Path_127" data-name="Path 127" d="M854.579,139.893H837.415V122.728h17.165Zm-16.418-.746h15.672V123.475H838.161Z" transform="translate(-583.563 -122.728)" fill="#3f3d56"/>
          <rect id="Rectangle_49" data-name="Rectangle 49" width="128.736" height="1.01" transform="translate(142.367 16.429)" fill="#3f3d56"/>
          <rect id="Rectangle_40" data-name="Rectangle 40" width="370.053" height="1.01" transform="translate(0 225.941)" fill="#3f3d56"/>
        </g>
        <g id="Notebook" transform="translate(0 6.709)">
          <path id="Path_121" data-name="Path 121" d="M388.9,138.725H257.555v-2.707H198v2.707H66.111a8.885,8.885,0,0,0-8.885,8.885V327.463a8.885,8.885,0,0,0,8.885,8.885H388.9a8.885,8.885,0,0,0,8.885-8.885V147.61a8.885,8.885,0,0,0-8.885-8.885Z" transform="translate(-43.69 -136.018)" fill="#3f3d56"/>
          <rect id="Rectangle_41" data-name="Rectangle 41" width="316.737" height="178.672" transform="translate(25.447 18.409)" fill="#97dffc"/>
          <path id="Path_122" data-name="Path 122" d="M276.561,228.426H50.406V49.754Z" transform="translate(-24.959 -31.345)" opacity="0.1"/>
          <circle id="Ellipse_13" data-name="Ellipse 13" cx="30.446" cy="30.446" r="30.446" transform="translate(44.561 122.819)" fill="#f2f2f2"/>
          <rect id="Rectangle_42" data-name="Rectangle 42" width="29.587" height="6.182" transform="translate(257.448 114.768)" fill="#3f3d56"/>
          <rect id="Rectangle_43" data-name="Rectangle 43" width="101.125" height="2.65" transform="translate(221.679 66.634)" fill="#3f3d56"/>
          <rect id="Rectangle_44" data-name="Rectangle 44" width="101.125" height="2.65" transform="translate(221.679 75.025)" fill="#3f3d56"/>
          <rect id="Rectangle_45" data-name="Rectangle 45" width="101.125" height="2.65" transform="translate(221.679 83.415)" fill="#3f3d56"/>
          <rect id="Rectangle_46" data-name="Rectangle 46" width="101.125" height="2.65" transform="translate(221.679 91.805)" fill="#3f3d56"/>
          <rect id="Rectangle_47" data-name="Rectangle 47" width="101.125" height="2.65" transform="translate(221.679 100.195)" fill="#3f3d56"/>
          <rect id="Rectangle_48" data-name="Rectangle 48" width="12.365" height="12.365" transform="translate(310.439 22.034)" fill="#f2f2f2"/>
          <path id="Path_123" data-name="Path 123" d="M666.469,200.8H651.455V185.785h15.014Zm-14.361-.653h13.709V186.438H652.108Z" transform="translate(-337.924 -160.66)" fill="#3f3d56"/>
          <path id="Path_124" data-name="Path 124" d="M393.4,517.343H362.492v-2.227a.442.442,0,0,0-.442-.442h-10.6a.442.442,0,0,0-.442.442v2.227h-6.624v-2.227a.442.442,0,0,0-.442-.442h-10.6a.442.442,0,0,0-.442.442v2.227h-6.624v-2.227a.442.442,0,0,0-.442-.442h-10.6a.442.442,0,0,0-.442.442v2.227h-6.624v-2.227a.442.442,0,0,0-.442-.442h-10.6a.442.442,0,0,0-.442.442v2.227h-6.624v-2.227a.442.442,0,0,0-.442-.442h-10.6a.442.442,0,0,0-.442.442v2.227h-6.624v-2.227a.442.442,0,0,0-.442-.442h-10.6a.442.442,0,0,0-.442.442v2.227H253.86v-2.227a.442.442,0,0,0-.442-.442H170.4a.442.442,0,0,0-.442.442v2.227h-6.624v-2.227a.442.442,0,0,0-.442-.442h-10.6a.442.442,0,0,0-.442.442v2.227h-6.624v-2.227a.442.442,0,0,0-.442-.442h-10.6a.442.442,0,0,0-.442.442v2.227h-6.624v-2.227a.442.442,0,0,0-.442-.442h-10.6a.442.442,0,0,0-.442.442v2.227h-6.624v-2.227a.442.442,0,0,0-.442-.442h-10.6a.442.442,0,0,0-.442.442v2.227H90.913v-2.227a.442.442,0,0,0-.442-.442h-10.6a.442.442,0,0,0-.442.442v2.227H72.807v-2.227a.442.442,0,0,0-.442-.442h-10.6a.442.442,0,0,0-.442.442v2.227H41.013a10.6,10.6,0,0,0-10.6,10.6v4.792a10.6,10.6,0,0,0,10.6,10.6H393.4a10.6,10.6,0,0,0,10.6-10.6v-4.792a10.6,10.6,0,0,0-10.6-10.6Z" transform="translate(-30.415 -323.511)" fill="#3f3d56"/>
          <circle id="Ellipse_12" data-name="Ellipse 12" cx="3.249" cy="3.249" r="3.249" transform="translate(180.296 7.039)" fill="#97dffc"/>
          <path id="Path_125" data-name="Path 125" d="M155.954,402.008a38.368,38.368,0,1,1,38.368-38.368A38.368,38.368,0,0,1,155.954,402.008Zm0-75.727a37.359,37.359,0,1,0,37.359,37.359A37.359,37.359,0,0,0,155.954,326.281Z" transform="translate(-73.578 -229.728)" fill="#3f3d56"/>
        </g>
        <g id="Mobile" transform="translate(422.734 82.167)">
          <path id="Path_129" data-name="Path 129" d="M980.7,303.748h-1.2v-32.9a19.04,19.04,0,0,0-19.04-19.04h-69.7a19.04,19.04,0,0,0-19.04,19.04V451.324a19.04,19.04,0,0,0,19.04,19.04h69.7a19.04,19.04,0,0,0,19.04-19.04V327.164h1.2Z" transform="translate(-871.726 -251.811)" fill="#3f3d56"/>
          <path id="Path_130" data-name="Path 130" d="M980.6,277.8v180.21a14.22,14.22,0,0,1-14.219,14.221h-70.03a14.218,14.218,0,0,1-14.216-14.219V277.8a14.218,14.218,0,0,1,14.215-14.216h8.5a6.755,6.755,0,0,0,6.255,9.3h39.928a6.754,6.754,0,0,0,6.255-9.3h9.1A14.218,14.218,0,0,1,980.6,277.8Z" transform="translate(-876.881 -257.639)" fill="#97dffc"/>
          <rect id="Rectangle_55" data-name="Rectangle 55" width="20.862" height="6.182" transform="translate(44.057 124.765)" fill="#3f3d56"/>
          <rect id="Rectangle_56" data-name="Rectangle 56" width="71.305" height="2.65" transform="translate(18.836 76.632)" fill="#3f3d56"/>
          <rect id="Rectangle_57" data-name="Rectangle 57" width="71.305" height="2.65" transform="translate(18.836 85.022)" fill="#3f3d56"/>
          <rect id="Rectangle_58" data-name="Rectangle 58" width="71.305" height="2.65" transform="translate(18.836 93.412)" fill="#3f3d56"/>
          <rect id="Rectangle_59" data-name="Rectangle 59" width="71.305" height="2.65" transform="translate(18.836 101.803)" fill="#3f3d56"/>
          <rect id="Rectangle_60" data-name="Rectangle 60" width="71.305" height="2.65" transform="translate(18.836 110.193)" fill="#3f3d56"/>
          <rect id="Rectangle_61" data-name="Rectangle 61" width="12.365" height="12.365" transform="translate(44.614 41.446)" fill="#f2f2f2"/>
          <path id="Path_131" data-name="Path 131" d="M969.474,340.032v15.014h15.014V340.032Zm14.363,14.363H970.125V340.683h13.712Z" transform="translate(-920.126 -295.494)" fill="#3f3d56"/>
          <path id="Path_132" data-name="Path 132" d="M980.6,534.284v19.245a14.22,14.22,0,0,1-14.219,14.221h-70.03a14.219,14.219,0,0,1-14.216-14.219V456.492l59,46.613,1.01.8,10.975,8.668,1.025.813Z" transform="translate(-876.881 -353.159)" opacity="0.1"/>
          <circle id="Ellipse_14" data-name="Ellipse 14" cx="22.147" cy="22.147" r="22.147" transform="translate(26.283 164.457)" fill="#f2f2f2"/>
          <path id="Path_134" data-name="Path 134" d="M953.353,600.8a27.767,27.767,0,1,1,27.767-27.767A27.767,27.767,0,0,1,953.353,600.8Zm0-54.523a26.757,26.757,0,1,0,26.757,26.757A26.757,26.757,0,0,0,953.353,546.281Z" transform="translate(-898.395 -397.119)" fill="#3f3d56"/>
        </g>
        <g id="LeftDecorations" transform="translate(94.701 229.126)">
          <circle id="Ellipse_10" data-name="Ellipse 10" cx="29.909" cy="29.909" r="29.909" transform="translate(0 4.377)" fill="#f2f2f2"/>
          <circle id="Ellipse_11" data-name="Ellipse 11" cx="29.909" cy="29.909" r="29.909" transform="translate(4.863)" fill="#97dffc"/>
          <rect id="Rectangle_50" data-name="Rectangle 50" width="370.053" height="1.01" transform="translate(110.353 53.863)" fill="#3f3d56"/>
          <rect id="Rectangle_52" data-name="Rectangle 52" width="14" height="14" transform="translate(143.235 48.874)" fill="#97dffc"/>
          <path id="Path_126" data-name="Path 126" d="M529.579,667.893H512.415V650.728h17.165Zm-16.418-.746h15.672V651.475H513.161Z" transform="translate(-363.779 -613.295)" fill="#3f3d56"/>
          <rect id="Rectangle_54" data-name="Rectangle 54" width="14" height="14" transform="translate(449.235 48.874)" fill="#97dffc"/>
          <path id="Path_128" data-name="Path 128" d="M1136.579,667.893h-17.165V650.728h17.165Zm-16.418-.746h15.672V651.475h-15.672Z" transform="translate(-664.337 -613.295)" fill="#3f3d56"/>
          <path id="Path_133" data-name="Path 133" d="M307.508,691.115a43.922,43.922,0,1,1,43.922-43.922A43.922,43.922,0,0,1,307.508,691.115Zm0-86.834a42.912,42.912,0,1,0,42.912,42.912,42.912,42.912,0,0,0-42.912-42.912Z" transform="translate(-240.571 -589.796)" fill="#3f3d56"/>
          <rect id="Rectangle_51" data-name="Rectangle 51" width="128.736" height="1.01" transform="translate(2.569 100.309)" fill="#3f3d56"/>
        </g>
      </g>
    </g>
  </g>
</svg>
