<svg xmlns="http://www.w3.org/2000/svg" xmlns:xlink="http://www.w3.org/1999/xlink" width="1365.398" height="768.037" viewBox="0 0 1365.398 768.037">
  <defs>
    <linearGradient id="linear-gradient" x1="0.318" y1="0.217" x2="0.942" y2="1.087" gradientUnits="objectBoundingBox">
      <stop offset="0" stop-color="#97dffc"/>
      <stop offset="1" stop-color="#6236c1"/>
    </linearGradient>
  </defs>
  <g id="MainBg" transform="translate(0 0.037)">
    <rect id="Rectangle_126" data-name="Rectangle 126" width="1365.398" height="768.011" transform="translate(0 -0.011)" fill="#fff"/>
    <path id="Background" d="M190.925,648.761h-.012a109.3,109.3,0,0,1-13.635-.833,94.642,94.642,0,0,1-13.222-2.623,86.809,86.809,0,0,1-24.987-11.356c-33.535-22.164-56.811-47.491-73.251-79.707-7.971-15.62-14.459-33.05-19.834-53.288C41,482.173,36.9,460.665,33.462,435.2l16.343-24.825a9.117,9.117,0,0,0-1.426-11.609,6.488,6.488,0,0,0-7.538-.83,7.475,7.475,0,0,0-2.6,2.461L30.62,411.968c-.325-2.933-.639-5.863-.935-8.709L8.862,434.889a4.71,4.71,0,0,1-3.938,2.245A4.492,4.492,0,0,1,1.965,436a6.2,6.2,0,0,1-.97-7.9L28.086,386.95c-.254-2.73-.513-5.613-.795-8.813l-17.1,25.978a2.216,2.216,0,0,1-1.852,1.057,2.115,2.115,0,0,1-1.394-.535,2.916,2.916,0,0,1-.456-3.716l20.136-30.587c-.158-1.887-.315-3.793-.468-5.666l5.7-8.66a1.825,1.825,0,0,0-.285-2.323,1.322,1.322,0,0,0-.871-.334,1.385,1.385,0,0,0-1.158.661l-3.781,5.744c-.95-11.989-1.919-25.277-2.962-40.626-2.9-42.6-3.781-78.909-2.7-111,1.026-30.56,3.848-57.448,8.625-82.2,2.264-11.728,4.932-22.864,8.156-34.043,3.02-10.472,6.456-20.723,10.5-31.337C51.05,50.915,55.2,41.06,60.065,30.418,64.242,21.281,68.916,11.615,74.774,0h470.2V498.675c-8.825,14.747-15.66,25.432-21.509,33.627-6.088,8.529-11.227,14.539-16.172,18.914a41.092,41.092,0,0,1-14.536,8.643,68.276,68.276,0,0,1-16.6,2.814l-23.09,35.075a4.156,4.156,0,0,1-3.474,1.981,3.966,3.966,0,0,1-2.612-1,5.471,5.471,0,0,1-.855-6.967l18.706-28.417c-4.668.266-10.3.625-16.65,1.279L463.727,541a4.377,4.377,0,0,0-.685-5.574,3.173,3.173,0,0,0-2.09-.8,3.325,3.325,0,0,0-2.78,1.585L438.72,565.758c-2.708.373-5.471.8-8.211,1.256l-36.826,55.94a5.539,5.539,0,0,1-4.632,2.642,5.288,5.288,0,0,1-3.483-1.336,7.294,7.294,0,0,1-1.14-9.289l29.406-44.67c-2.163.487-4.393,1.012-6.627,1.56-6.058,1.489-12.418,3.417-19.444,5.895-6.278,2.214-12.962,4.825-20.433,7.982-13.908,5.877-28.059,12.588-43.041,19.693C302.13,615.94,279.216,626.806,256.683,635a262.407,262.407,0,0,1-33.452,9.952c-5.621,1.234-11.118,2.179-16.339,2.809A134.246,134.246,0,0,1,190.925,648.761Z" transform="translate(819.496 -0.037)" fill="url(#linear-gradient)"/>
    <g id="Shapes_decorations" data-name="Shapes decorations" transform="translate(90.713 72.882)">
      <g id="Group_33" data-name="Group 33" transform="translate(496.337 0)">
        <line id="Line_1" data-name="Line 1" y2="24.89" transform="translate(12.445 0)" fill="none" stroke="#f4f2f2" stroke-linecap="round" stroke-width="6"/>
        <line id="Line_2" data-name="Line 2" x1="24.89" transform="translate(0 12.445)" fill="none" stroke="#f4f2f2" stroke-linecap="round" stroke-width="6"/>
      </g>
      <g id="Group_34" data-name="Group 34" transform="translate(226.813 125.867) rotate(90)">
        <line id="Line_1-2" data-name="Line 1" y2="24.89" transform="translate(12.445 0)" fill="none" stroke="#f4f2f2" stroke-linecap="round" stroke-width="6"/>
        <line id="Line_2-2" data-name="Line 2" x1="24.89" transform="translate(0 12.445)" fill="none" stroke="#f4f2f2" stroke-linecap="round" stroke-width="6"/>
      </g>
      <g id="Group_35" data-name="Group 35" transform="translate(462.913 433.069) rotate(90)">
        <line id="Line_1-3" data-name="Line 1" y2="24.89" transform="translate(12.445 0)" fill="none" stroke="#f4f2f2" stroke-linecap="round" stroke-width="6"/>
        <line id="Line_2-3" data-name="Line 2" x1="24.89" transform="translate(0 12.445)" fill="none" stroke="#f4f2f2" stroke-linecap="round" stroke-width="6"/>
      </g>
      <g id="Group_36" data-name="Group 36" transform="translate(897.776 470.576)">
        <line id="Line_1-4" data-name="Line 1" y2="24.89" transform="translate(12.445 0)" fill="none" stroke="#f4f2f2" stroke-linecap="round" stroke-width="6"/>
        <line id="Line_2-4" data-name="Line 2" x1="24.89" transform="translate(0 12.445)" fill="none" stroke="#f4f2f2" stroke-linecap="round" stroke-width="6"/>
      </g>
      <g id="Polygon_2" data-name="Polygon 2" transform="translate(821.505 32.27) rotate(31)" fill="none" stroke-linecap="round">
        <path d="M26.1,3.012a2,2,0,0,1,3.467,0L53.932,45.36a2,2,0,0,1-1.733,3H3.458a2,2,0,0,1-1.733-3Z" stroke="none"/>
        <path d="M 27.82858276367188 10.02449035644531 L 8.646167755126953 43.35786056518555 L 47.01099014282227 43.35786056518555 L 27.82858276367188 10.02449035644531 M 27.82857704162598 2.009796142578125 C 28.50301361083984 2.009796142578125 29.17745208740234 2.343944549560547 29.56204032897949 3.012237548828125 L 53.93214416503906 45.36029815673828 C 54.6994514465332 46.69363784790039 53.73704147338867 48.35784912109375 52.19868850708008 48.35786056518555 L 3.458461761474609 48.35786056518555 C 1.920120239257812 48.35786056518555 0.9577102661132812 46.69363784790039 1.725006103515625 45.36029815673828 L 26.09512138366699 3.012237548828125 C 26.47970390319824 2.343944549560547 27.15414047241211 2.009796142578125 27.82857704162598 2.009796142578125 Z" stroke="none" fill="#f4f2f2"/>
      </g>
      <g id="Polygon_3" data-name="Polygon 3" transform="matrix(0.454, 0.891, -0.891, 0.454, 46.255, 471.37)" fill="none" stroke-linecap="round" stroke-linejoin="round">
        <path d="M44.013,0a2,2,0,0,1,1.73,1L59.638,24.953a2,2,0,0,1,0,2.007L45.743,50.917a2,2,0,0,1-1.73,1H16.207a2,2,0,0,1-1.73-1L.582,26.96a2,2,0,0,1,0-2.007L14.477,1a2,2,0,0,1,1.73-1Z" stroke="none"/>
        <path d="M 18.5111198425293 5.999996185302734 L 6.936164855957031 25.9567928314209 L 18.51109313964844 45.91358184814453 L 41.70867538452148 45.91358184814453 L 53.28359985351562 25.95679473876953 L 41.70866012573242 5.999996185302734 L 18.5111198425293 5.999996185302734 M 16.20699691772461 -3.814697265625e-06 L 44.01276779174805 -3.814697265625e-06 C 44.72588348388672 -3.814697265625e-06 45.38505554199219 0.3796958923339844 45.74283981323242 0.9965667724609375 L 59.63776779174805 24.9533519744873 C 59.9976806640625 25.57390975952148 59.9976806640625 26.33967971801758 59.63776779174805 26.96022415161133 L 45.74283981323242 50.91702270507812 C 45.38505554199219 51.53388214111328 44.72588348388672 51.91358184814453 44.01276779174805 51.91358184814453 L 16.20699691772461 51.91358184814453 C 15.49388122558594 51.91359329223633 14.83470916748047 51.53388214111328 14.47692489624023 50.91702270507812 L 0.5819969177246094 26.96022415161133 C 0.2220840454101562 26.33967971801758 0.2220840454101562 25.57390975952148 0.5819969177246094 24.9533519744873 L 14.4769401550293 0.9965667724609375 C 14.83472442626953 0.3796958923339844 15.49388122558594 -3.814697265625e-06 16.20699691772461 -3.814697265625e-06 Z" stroke="none" fill="#f4f2f2"/>
      </g>
      <g id="Group_37" data-name="Group 37" transform="translate(1252.416 225.468) rotate(90)">
        <line id="Line_1-5" data-name="Line 1" y2="24.89" transform="translate(12.445 0)" fill="none" stroke="#f4f2f2" stroke-linecap="round" stroke-width="6"/>
        <line id="Line_2-5" data-name="Line 2" x1="24.89" transform="translate(0 12.445)" fill="none" stroke="#f4f2f2" stroke-linecap="round" stroke-width="6"/>
      </g>
      <g id="Polygon_4" data-name="Polygon 4" transform="matrix(0.966, -0.259, 0.259, 0.966, 969.993, 606.5)" fill="none" stroke-linecap="round">
        <path d="M15.7,3.012a2,2,0,0,1,3.467,0L33.148,27.3a2,2,0,0,1-1.733,3H3.458a2,2,0,0,1-1.733-3Z" stroke="none"/>
        <path d="M 17.43647193908691 10.02449607849121 L 8.646177291870117 25.29943466186523 L 26.22676467895508 25.29943466186523 L 17.43647193908691 10.02449607849121 M 17.43647003173828 2.009794235229492 C 18.11090660095215 2.009794235229492 18.78534507751465 2.343944549560547 19.16992950439453 3.012245178222656 L 33.14793014526367 27.3018856048584 C 33.91522979736328 28.63521575927734 32.95281982421875 30.29943466186523 31.41447067260742 30.29943466186523 L 3.458469390869141 30.29943466186523 C 1.920120239257812 30.29943466186523 0.9577102661132812 28.63521575927734 1.725009918212891 27.3018856048584 L 15.70301055908203 3.012245178222656 C 16.08759498596191 2.343944549560547 16.76203346252441 2.009794235229492 17.43647003173828 2.009794235229492 Z" stroke="none" fill="#f4f2f2"/>
      </g>
    </g>
    <g id="MainGraphic" transform="translate(921.774 206.432)">
      <g id="AnimatedImage" transform="translate(0 0)">
        <g id="RightDecorations" transform="translate(109.203)">
          <rect id="Rectangle_53" data-name="Rectangle 53" width="9.956" height="9.956" transform="translate(176.632 7.823)" fill="#97dffc"/>
          <path id="Path_127" data-name="Path 127" d="M849.621,134.935H837.415V122.728h12.207Zm-11.676-.531h11.145V123.259H837.945Z" transform="translate(-656.889 -122.728)" fill="#3f3d56"/>
          <rect id="Rectangle_49" data-name="Rectangle 49" width="91.55" height="0.718" transform="translate(101.244 11.684)" fill="#3f3d56"/>
          <rect id="Rectangle_40" data-name="Rectangle 40" width="263.161" height="0.718" transform="translate(0 160.677)" fill="#3f3d56"/>
        </g>
        <g id="Notebook" transform="translate(0 4.771)">
          <path id="Path_121" data-name="Path 121" d="M293.1,137.943H199.689v-1.925H157.335v1.925H63.544a6.318,6.318,0,0,0-6.318,6.318v127.9a6.318,6.318,0,0,0,6.318,6.318H293.1a6.318,6.318,0,0,0,6.318-6.318v-127.9A6.318,6.318,0,0,0,293.1,137.943Z" transform="translate(-47.6 -136.018)" fill="#3f3d56"/>
          <rect id="Rectangle_41" data-name="Rectangle 41" width="225.246" height="127.062" transform="translate(18.097 13.091)" fill="#97dffc"/>
          <path id="Path_122" data-name="Path 122" d="M211.235,176.816H50.406V49.754Z" transform="translate(-32.309 -36.663)" opacity="0.1"/>
          <circle id="Ellipse_13" data-name="Ellipse 13" cx="21.651" cy="21.651" r="21.651" transform="translate(31.69 87.342)" fill="#f2f2f2"/>
          <rect id="Rectangle_42" data-name="Rectangle 42" width="21.04" height="4.397" transform="translate(183.083 81.617)" fill="#3f3d56"/>
          <rect id="Rectangle_43" data-name="Rectangle 43" width="71.914" height="1.884" transform="translate(157.646 47.387)" fill="#3f3d56"/>
          <rect id="Rectangle_44" data-name="Rectangle 44" width="71.914" height="1.884" transform="translate(157.646 53.353)" fill="#3f3d56"/>
          <rect id="Rectangle_45" data-name="Rectangle 45" width="71.914" height="1.884" transform="translate(157.646 59.32)" fill="#3f3d56"/>
          <rect id="Rectangle_46" data-name="Rectangle 46" width="71.914" height="1.884" transform="translate(157.646 65.287)" fill="#3f3d56"/>
          <rect id="Rectangle_47" data-name="Rectangle 47" width="71.914" height="1.884" transform="translate(157.646 71.253)" fill="#3f3d56"/>
          <rect id="Rectangle_48" data-name="Rectangle 48" width="8.793" height="8.793" transform="translate(220.767 15.669)" fill="#f2f2f2"/>
          <path id="Path_123" data-name="Path 123" d="M662.132,196.462H651.455V185.785h10.677ZM651.919,196h9.749v-9.749h-9.749Z" transform="translate(-428.489 -167.918)" fill="#3f3d56"/>
          <path id="Path_124" data-name="Path 124" d="M288.552,516.572H266.57v-1.584a.314.314,0,0,0-.314-.314h-7.537a.314.314,0,0,0-.314.314v1.584h-4.711v-1.584a.314.314,0,0,0-.314-.314h-7.537a.314.314,0,0,0-.314.314v1.584h-4.711v-1.584a.314.314,0,0,0-.314-.314h-7.537a.314.314,0,0,0-.314.314v1.584h-4.711v-1.584a.314.314,0,0,0-.314-.314h-7.537a.314.314,0,0,0-.314.314v1.584h-4.711v-1.584a.314.314,0,0,0-.314-.314h-7.537a.314.314,0,0,0-.314.314v1.584h-4.711v-1.584a.314.314,0,0,0-.314-.314h-7.537a.314.314,0,0,0-.314.314v1.584h-4.711v-1.584a.314.314,0,0,0-.314-.314H129.964a.314.314,0,0,0-.314.314v1.584h-4.711v-1.584a.314.314,0,0,0-.314-.314h-7.537a.314.314,0,0,0-.314.314v1.584h-4.711v-1.584a.314.314,0,0,0-.314-.314h-7.537a.314.314,0,0,0-.314.314v1.584H99.188v-1.584a.314.314,0,0,0-.314-.314H91.338a.314.314,0,0,0-.314.314v1.584H86.313v-1.584a.314.314,0,0,0-.314-.314H78.462a.314.314,0,0,0-.314.314v1.584H73.438v-1.584a.314.314,0,0,0-.314-.314H65.587a.314.314,0,0,0-.314.314v1.584H60.562v-1.584a.314.314,0,0,0-.314-.314H52.711a.314.314,0,0,0-.314.314v1.584H37.951a7.537,7.537,0,0,0-7.537,7.537v3.408a7.537,7.537,0,0,0,7.537,7.537h250.6a7.537,7.537,0,0,0,7.537-7.537v-3.408a7.537,7.537,0,0,0-7.537-7.537Z" transform="translate(-30.415 -378.729)" fill="#3f3d56"/>
          <circle id="Ellipse_12" data-name="Ellipse 12" cx="2.31" cy="2.31" r="2.31" transform="translate(128.217 5.005)" fill="#97dffc"/>
          <path id="Path_125" data-name="Path 125" d="M144.871,379.843a27.285,27.285,0,1,1,27.285-27.285A27.285,27.285,0,0,1,144.871,379.843Zm0-53.853a26.567,26.567,0,1,0,26.567,26.567A26.567,26.567,0,0,0,144.871,325.99Z" transform="translate(-86.29 -257.326)" fill="#3f3d56"/>
        </g>
        <g id="Mobile" transform="translate(300.625 58.433)">
          <path id="Path_129" data-name="Path 129" d="M949.224,288.745h-.854V265.351a13.54,13.54,0,0,0-13.54-13.54H885.266a13.54,13.54,0,0,0-13.54,13.54V393.694a13.54,13.54,0,0,0,13.54,13.54H934.83a13.54,13.54,0,0,0,13.54-13.54V305.4h.854Z" transform="translate(-871.726 -251.811)" fill="#3f3d56"/>
          <path id="Path_130" data-name="Path 130" d="M952.159,273.692V401.847a10.112,10.112,0,0,1-10.112,10.114h-49.8a10.111,10.111,0,0,1-10.11-10.112V273.692a10.111,10.111,0,0,1,10.109-10.11h6.043a4.8,4.8,0,0,0,4.448,6.617h28.395a4.8,4.8,0,0,0,4.448-6.617h6.47a10.111,10.111,0,0,1,10.11,10.109Z" transform="translate(-878.399 -259.356)" fill="#97dffc"/>
          <rect id="Rectangle_55" data-name="Rectangle 55" width="14.836" height="4.397" transform="translate(31.331 88.726)" fill="#3f3d56"/>
          <rect id="Rectangle_56" data-name="Rectangle 56" width="50.708" height="1.884" transform="translate(13.395 54.496)" fill="#3f3d56"/>
          <rect id="Rectangle_57" data-name="Rectangle 57" width="50.708" height="1.884" transform="translate(13.395 60.463)" fill="#3f3d56"/>
          <rect id="Rectangle_58" data-name="Rectangle 58" width="50.708" height="1.884" transform="translate(13.395 66.43)" fill="#3f3d56"/>
          <rect id="Rectangle_59" data-name="Rectangle 59" width="50.708" height="1.884" transform="translate(13.395 72.396)" fill="#3f3d56"/>
          <rect id="Rectangle_60" data-name="Rectangle 60" width="50.708" height="1.884" transform="translate(13.395 78.363)" fill="#3f3d56"/>
          <rect id="Rectangle_61" data-name="Rectangle 61" width="8.793" height="8.793" transform="translate(31.727 29.474)" fill="#f2f2f2"/>
          <path id="Path_131" data-name="Path 131" d="M969.474,340.032v10.677h10.677V340.032Zm10.214,10.214h-9.751v-9.751h9.751Z" transform="translate(-934.38 -308.359)" fill="#3f3d56"/>
          <path id="Path_132" data-name="Path 132" d="M952.159,511.813V525.5a10.112,10.112,0,0,1-10.112,10.114h-49.8a10.111,10.111,0,0,1-10.11-10.112V456.492l41.959,33.148.718.567,7.805,6.164.729.578Z" transform="translate(-878.399 -383.007)" opacity="0.1"/>
          <circle id="Ellipse_14" data-name="Ellipse 14" cx="15.749" cy="15.749" r="15.749" transform="translate(18.691 116.953)" fill="#f2f2f2"/>
          <path id="Path_134" data-name="Path 134" d="M945.332,584.764a19.746,19.746,0,1,1,19.746-19.746A19.746,19.746,0,0,1,945.332,584.764Zm0-38.774a19.028,19.028,0,1,0,19.028,19.028A19.028,19.028,0,0,0,945.332,545.99Z" transform="translate(-906.249 -439.914)" fill="#3f3d56"/>
        </g>
        <g id="LeftDecorations" transform="translate(67.346 162.942)">
          <circle id="Ellipse_10" data-name="Ellipse 10" cx="21.27" cy="21.27" r="21.27" transform="translate(0 3.113)" fill="#f2f2f2"/>
          <circle id="Ellipse_11" data-name="Ellipse 11" cx="21.27" cy="21.27" r="21.27" transform="translate(3.458)" fill="#97dffc"/>
          <rect id="Rectangle_50" data-name="Rectangle 50" width="263.161" height="0.718" transform="translate(78.477 38.304)" fill="#3f3d56"/>
          <rect id="Rectangle_52" data-name="Rectangle 52" width="9.956" height="9.956" transform="translate(101.861 34.757)" fill="#97dffc"/>
          <path id="Path_126" data-name="Path 126" d="M524.621,662.935H512.415V650.728h12.207Zm-11.676-.531h11.145V651.259H512.945Z" transform="translate(-406.713 -624.108)" fill="#3f3d56"/>
          <rect id="Rectangle_54" data-name="Rectangle 54" width="9.956" height="9.956" transform="translate(319.471 34.757)" fill="#97dffc"/>
          <path id="Path_128" data-name="Path 128" d="M1131.621,662.935h-12.207V650.728h12.207Zm-11.676-.531h11.145V651.259h-11.145Z" transform="translate(-795.788 -624.108)" fill="#3f3d56"/>
          <path id="Path_133" data-name="Path 133" d="M294.821,665.741a31.235,31.235,0,1,1,31.235-31.235A31.235,31.235,0,0,1,294.821,665.741Zm0-61.751a30.517,30.517,0,1,0,30.517,30.517A30.517,30.517,0,0,0,294.821,603.99Z" transform="translate(-247.219 -593.689)" fill="#3f3d56"/>
          <rect id="Rectangle_51" data-name="Rectangle 51" width="91.55" height="0.718" transform="translate(1.827 71.334)" fill="#3f3d56"/>
        </g>
      </g>
    </g>
  </g>
</svg>
