<svg xmlns="http://www.w3.org/2000/svg" xmlns:xlink="http://www.w3.org/1999/xlink" width="379.599" height="812" viewBox="0 0 379.599 812"><defs><linearGradient id="a" x1="-0.076" x2="1.166" y2="1.021" gradientUnits="objectBoundingBox"><stop offset="0" stop-color="#97dffc"/><stop offset="1" stop-color="#6236c1"/></linearGradient></defs><g transform="translate(0.714 -812)"><rect width="375" height="812" transform="translate(0 812)" fill="#fff"/><g transform="matrix(0.695, -0.719, 0.719, 0.695, 17.209, 915.167)" fill="none" stroke-linecap="round"><path d="M21.285,3.012a2,2,0,0,1,3.467,0L44.313,37a2,2,0,0,1-1.733,3H3.458a2,2,0,0,1-1.733-3Z" stroke="none"/><path d="M 23.01886940002441 8.019584655761719 L 6.916938781738281 35.99999618530273 L 39.12079620361328 35.99999618530273 L 23.01886940002441 8.019584655761719 M 23.01886749267578 2.009799957275391 C 23.69330406188965 2.009799957275391 24.36774253845215 2.343944549560547 24.75232696533203 3.012237548828125 L 44.31272888183594 37.00244522094727 C 45.08001708984375 38.33577728271484 44.11760711669922 39.99999618530273 42.57926940917969 39.99999618530273 L 3.458469390869141 39.99999618530273 C 1.920116424560547 39.99999618530273 0.9577178955078125 38.33577728271484 1.725006103515625 37.00244522094727 L 21.28540802001953 3.012237548828125 C 21.66999244689941 2.343944549560547 22.34443092346191 2.009799957275391 23.01886749267578 2.009799957275391 Z" stroke="none" fill="#f4f2f2"/></g><g transform="translate(-78.018 825.555) rotate(31)"><line y2="32.997" transform="translate(594.453 118.5)" fill="none" stroke="#f4f2f2" stroke-linecap="round" stroke-width="4"/><line x1="32.997" transform="translate(577.955 134.998)" fill="none" stroke="#f4f2f2" stroke-linecap="round" stroke-width="4"/></g><g transform="translate(-101.46 736.468) rotate(66)"><line y2="32.997" transform="translate(594.453 118.5)" fill="none" stroke="#f4f2f2" stroke-linecap="round" stroke-width="4"/><line x1="32.997" transform="translate(577.955 134.998)" fill="none" stroke="#f4f2f2" stroke-linecap="round" stroke-width="4"/></g><g transform="matrix(0.454, 0.891, -0.891, 0.454, 67.962, 1485.529)" fill="none" stroke-linecap="round" stroke-linejoin="round"><path d="M27.344,0a2,2,0,0,1,1.733,1l8.348,14.5a2,2,0,0,1,0,2L29.077,32a2,2,0,0,1-1.733,1H10.656a2,2,0,0,1-1.733-1L.575,17.5a2,2,0,0,1,0-2L8.923,1a2,2,0,0,1,1.733-1Z" stroke="none"/><path d="M 11.81259155273438 4.000001907348633 L 4.615627288818359 16.50000381469727 L 11.81259536743164 29.00000190734863 L 26.18740844726562 29.00000190734863 L 33.38437271118164 16.5 L 26.18740463256836 4.000001907348633 L 11.81259155273438 4.000001907348633 M 10.65629959106445 3.814697265625e-06 L 27.34370040893555 3.814697265625e-06 C 28.05908966064453 3.814697265625e-06 28.72000122070312 0.3821029663085938 29.07695007324219 1.002071380615234 L 37.42543029785156 15.50207138061523 C 37.78110885620117 16.11982154846191 37.78110885620117 16.88018226623535 37.42543029785156 17.49793243408203 L 29.07695007324219 31.99793243408203 C 28.72000122070312 32.61790084838867 28.05908966064453 33 27.34370040893555 33 L 10.65629005432129 33 C 9.940910339355469 33 9.280000686645508 32.61790084838867 8.923049926757812 31.99793243408203 L 0.5745697021484375 17.49793243408203 C 0.2188911437988281 16.88018226623535 0.2188911437988281 16.11982154846191 0.5745697021484375 15.50207138061523 L 8.923049926757812 1.002071380615234 C 9.280000686645508 0.3821029663085938 9.940910339355469 3.814697265625e-06 10.65629959106445 3.814697265625e-06 Z" stroke="none" fill="#f4f2f2"/></g><g transform="translate(-1 -289)"><path d="M-2417.285,320.963c-3.645,0-5.708-.04-5.716-.04V1.945l.033.006c1.516.247,9.719,1.545,22.306,2.83,12.669,1.295,32.488,2.838,54.957,2.838a425.029,425.029,0,0,0,51.756-2.992c16.083-1.988,32.129-5.591,47.646-9.075l.041-.009c20.683-4.647,40.22-9.036,57.338-9.036a66.962,66.962,0,0,1,22.54,3.415,45.994,45.994,0,0,1,9.733,4.769,45.145,45.145,0,0,1,8.563,7.254,142,142,0,0,1,17.256,23.066l43.852-.379h.039c1.885,0,3.457,1.238,3.5,2.76a2.428,2.428,0,0,1-.71,1.757,3.726,3.726,0,0,1-2.66,1.062l-40.851.354c.46.846.911,1.7,1.341,2.53l5.8-.064h.067c1.868,0,3.422.9,3.462,2a1.435,1.435,0,0,1-.441,1.04,4.255,4.255,0,0,1-2.942,1.037l-3.926.043c.49,1.024.97,2.056,1.427,3.067l-29.281.213a3.511,3.511,0,0,0-2.5,1.043,3.03,3.03,0,0,0-.864,2.2,3.443,3.443,0,0,0,3.522,3.2h.029l31.822-.231c.679,1.7,1.336,3.44,1.952,5.16l14.006-.142h.055c1.875,0,3.436,1.016,3.478,2.266a1.755,1.755,0,0,1-.534,1.279,4.034,4.034,0,0,1-2.843,1.055l-12.6.129c.588,1.814,1.146,3.641,1.659,5.43A177.7,177.7,0,0,1-2108.8,95.9a202.263,202.263,0,0,1-.2,35.186,220.268,220.268,0,0,1-6.136,35.06,225.633,225.633,0,0,1-11.653,33.7,215.323,215.323,0,0,1-16.737,31.1c-2.68,4.115-5.526,8.154-8.458,12l15.877-.154h.047c1.88,0,3.446,1.088,3.491,2.426a1.96,1.96,0,0,1-.593,1.43,3.949,3.949,0,0,1-2.783,1.06l-19.94.194c-.938,1.152-1.9,2.3-2.849,3.416l37.52-.242h.021a3.569,3.569,0,0,1,3.533,3.454,3.386,3.386,0,0,1-.947,2.47,3.354,3.354,0,0,1-2.411,1.029l-44.009.284c-.907.957-1.867,1.923-2.851,2.869l-40.5.263a3.354,3.354,0,0,0-2.409,1.028,3.39,3.39,0,0,0-.949,2.47,3.569,3.569,0,0,0,3.531,3.454h.024l32.191-.208a132.692,132.692,0,0,1-14.659,9.859A205.86,205.86,0,0,1-2223.6,293.2c-21.368,7.81-47.091,14.127-76.453,18.774-22.314,3.535-46.53,6.084-71.976,7.577C-2392.94,320.78-2409.359,320.963-2417.285,320.963Z" transform="translate(2424.001 1586.849)" fill="url(#a)"/><g transform="translate(58.115 1655)"><rect width="188.64" height="0.439" transform="translate(0 140.872)" fill="#3f3d56"/><path d="M700.526,398.628s-8.461,6.648-4.231,8.159,6.95-5.439,6.95-5.439Z" transform="translate(-582.169 -332.882)" fill="#ffb8b8"/><path d="M716.866,386.28l-1.813,3.022s3.022,0,3.626,4.533l2.418-3.022Z" transform="translate(-598.207 -322.951)" fill="#cfcce0"/><path d="M791.49,675.375l.3,9.066-3.626,2.115-1.511-.906.3-10.274Z" transform="translate(-632.64 -543.147)" fill="#ffb8b8"/><path d="M787.735,725.845l.6,9.67-8.461,3.626.6-5.137a13.82,13.82,0,0,0,1.813-8.159Z" transform="translate(-650.341 -596.034)" fill="#ffb8b8"/><path d="M787.075,353.868s4.835,12.692,5.742,20.549,2.418,28.708,2.418,28.708l3.022,26.895-8.461,1.209-3.626-27.2-8.159-26.895L776.2,404.031l-1.511,24.477-7.857.3-.6-25.384L762.9,371.092l1.813-15.412Z" transform="translate(-636.687 -296.884)" fill="#2f2e41"/><path d="M904.565,774.855s.5-5.075,4.176-2.235l.659-.484,3.022,6.648s3.626,5.137-2.72,5.742-5.742-5.742-5.742-5.742l-.6-2.72.3-1.781Z" transform="translate(-749.644 -632.957)" fill="#2f2e41"/><path d="M745.532,756.714a4.8,4.8,0,0,1,2.418,4.231c0,3.022-.3,3.324-.3,3.324l-4.533,1.209s-3.022-.3-4.835,1.511-10.879,3.022-10.879.6,7.555-6.346,7.555-6.346,2.244-3.789,3.841-3.405,2.2.988,2.2,1.29a20.824,20.824,0,0,1-.907,2.417S745.229,760.34,745.532,756.714Z" transform="translate(-608.137 -620.86)" fill="#2f2e41"/><circle cx="7.555" cy="7.555" r="7.555" transform="translate(129.235 4.704)" fill="#ffb8b8"/><path d="M811.056,135.466l3.324,7.555-9.066,12.994s-.6-14.2-2.418-16.62S811.056,135.466,811.056,135.466Z" transform="translate(-668.676 -121.243)" fill="#ffb8b8"/><path d="M659.695,105.74l1.511-3.928,1.208.3,1.511-1.209,2.115-6.648,3.022,2.115,3.928,39.587-24.477.6,3.324-27.5,3.022-7.857,2.181-2.884,1.445,4.395Z" transform="translate(-521.545 -75.803)" fill="#cfcce0"/><path d="M859.367,189.877l.925-27.335s1.8.138,2.4,1.045,10.577,2.72,10.577,2.72l-1.813,28.1s7.555,22.362,4.835,23.571-7.555.907-7.555.907Z" transform="translate(-714.267 -143.017)" fill="#575a89"/><path d="M752.023,208.736l3.206-18.423-7.134,4.824,1.813,13.3L748.4,217.5s-5.742,25.082-3.929,25.988a5.209,5.209,0,0,0,3.929,0l3.626-25.384Z" transform="translate(-621.578 -165.351)" fill="#575a89"/><path d="M726.838,211.868l-2.115.6-.907,12.088L722.3,235.136l-7.253,12.994s3.626-2.418,5.137,4.533l7.987-13.906Z" transform="translate(-598.207 -182.686)" fill="#575a89"/><path d="M873.4,386.28s-8.461,6.648-4.231,8.159,6.95-5.439,6.95-5.439Z" transform="translate(-721.193 -322.951)" fill="#ffb8b8"/><path d="M777.566,316.857l-2.72,3.324-3.626-6.346,1.511-2.72Z" transform="translate(-620.227 -250.203)" fill="#cfcce0"/><path d="M895.207,182.207,897.624,181a12.315,12.315,0,0,1,2.115,4.533c.3,2.115,1.813,4.835,1.813,6.346s4.231,15.714,4.231,15.714l-9.67,19.642s-2.115-7.253-6.648-7.857L897.02,208.8l-4.231-7.555Z" transform="translate(-738.472 -157.86)" fill="#575a89"/><path d="M779.358,67.879l1.425-.57s-2.979-3.279-7.123-2.994l1.166-1.283s-2.849-1.141-5.439,1.854a25.281,25.281,0,0,0-3.919,5.508h-1.526l.637,1.4-2.229,1.4,2.287-.252a7.835,7.835,0,0,0-.062,2.326,3.009,3.009,0,0,0,1.1,1.968h0a31.624,31.624,0,0,0,1.767-4.227v1.426s1.425-1.283,1.425-2.139l.777,1,.388-1.568,4.792,1.568-.777-1.283,2.979.428-1.166-1.568s3.367,1.854,3.5,3.422a7.532,7.532,0,0,0,1.115,3.055S783.114,70.018,779.358,67.879Z" transform="translate(-636.243 -62.818)" fill="#2f2e41"/><ellipse cx="0.846" cy="1.058" rx="0.846" ry="1.058" transform="translate(142.139 9.993)" fill="#ffb8b8"/><path d="M71.447,288.092H45.361v-7.31H58.978Z" transform="translate(-36.48 -225.809)" fill="#97dffc"/><path d="M163.24,375.811v21.356h84.709V375.811Zm33.038,17.773h-27.52v-3.01h27.52Zm46.153-5.59H168.759v-3.01h73.673Zm0-5.59H168.759v-3.01h73.673Z" transform="translate(-154.431 -314.532)" fill="#3f3d56"/><path d="M71.447,111.658H45.361v-7.31H58.978Z" transform="translate(-36.48 -83.918)" fill="#97dffc"/><path d="M163.24,201.574v21.356h84.709V201.574Zm33.038,17.773h-27.52v-3.01h27.52Zm15.91-5.59h-43.43v-3.01h43.43Zm30.243-5.59H168.759v-3.01h73.673Z" transform="translate(-154.431 -174.408)" fill="#3f3d56"/><path d="M71.447,460.865H45.361v-7.31H58.978Z" transform="translate(-36.48 -364.756)" fill="#97dffc"/><path d="M163.24,546.388v21.356h84.709V546.388Zm48.948,17.773h-43.43v-3.01h43.43Zm0-5.59h-43.43v-3.01h43.43Zm30.243-5.59H168.759v-3.01h73.673Z" transform="translate(-154.431 -451.713)" fill="#3f3d56"/><path d="M550.829,174.223h-12.04v-12.04h8.17v.287h-7.883v11.467h11.467V168.2h.287Z" transform="translate(-433.302 -130.43)" fill="#3f3d56"/><path d="M677.94,230.175c-.278-.822-3.767-3.614-1.629-4.084l1.753,2.338,8.061-8.061.811.811Z" transform="translate(-566.495 -189.522)" fill="#97dffc"/><path d="M550.829,348.46h-12.04V336.42h8.17v.287h-7.883v11.466h11.467V342.44h.287Z" transform="translate(-433.302 -270.554)" fill="#3f3d56"/><path d="M677.94,404.412c-.278-.822-3.767-3.614-1.629-4.084l1.753,2.338,8.061-8.061.811.811Z" transform="translate(-566.495 -329.647)" fill="#97dffc"/><path d="M550.829,521.966h-12.04v-12.04h8.17v.287h-7.883v11.466h11.467v-5.733h.287Z" transform="translate(-433.302 -410.09)" fill="#3f3d56"/><path d="M677.94,577.917c-.278-.822-3.767-3.614-1.629-4.084l1.753,2.338,8.061-8.061.811.811Z" transform="translate(-566.495 -469.182)" fill="#97dffc"/></g></g></g></svg>