<svg xmlns="http://www.w3.org/2000/svg" width="196.064" height="196.065" viewBox="0 0 196.064 196.065">
  <g id="_x32_4_x2C__Dimension_x2C__Adobe" transform="translate(-1.207 -0.711)">
    <g id="Group_66" data-name="Group 66" transform="translate(1.207 0.711)">
      <rect id="Rectangle_216" data-name="Rectangle 216" width="196.064" height="196.065" transform="translate(0)" fill="#3cf2a5"/>
      <rect id="Rectangle_217" data-name="Rectangle 217" width="178.811" height="178.811" transform="translate(8.626 8.628)" fill="#01271a"/>
      <g id="Group_65" data-name="Group 65" transform="translate(36.835 53.54)">
        <g id="Group_64" data-name="Group 64">
          <g id="Group_63" data-name="Group 63">
            <path id="Path_299" data-name="Path 299" d="M120.488,140.135c-7.335,0-15.8.136-22.568.407-.677.134-.79.406-.79.947v86.141c0,.948.226,1.218.79,1.218,6.432.136,12.3.271,20.31.271,15.347,0,40.623-6.908,40.623-45.509C158.854,157.608,145.989,140.135,120.488,140.135Zm-1.805,76.118c-3.16,0-5.868,0-7.9-.134v-62.71c1.016-.136,4.626-.27,9.7-.27,15.46,0,24.374,10.428,24.374,30.881C144.862,206.367,134.48,216.253,118.683,216.253ZM201.448,162.6c-10.622-.838-28.367,4.569-28.367,4.569-.647,0-.761.38-.761,1.066.227,2.665.038,6.549.038,11.118h.076V227.9c0,.952.19,1.219.761,1.219h11.612c.648,0,.877-.266.877-1.067V177.717c4.34-2.094,6.206-2.741,10.318-2.741,6.626,0,10.243,5.978,10.243,14.7V227.9c0,.8.342,1.219.99,1.219h11.5c.532,0,.875-.381.875-1.067V189.825C219.611,168.083,209.94,163.286,201.448,162.6Z" transform="translate(-97.13 -140.135)" fill="#d4fdef"/>
          </g>
        </g>
      </g>
    </g>
  </g>
</svg>
