<svg xmlns="http://www.w3.org/2000/svg" width="355.962" height="493" viewBox="0 0 355.962 493"><g transform="translate(0 -0.05)"><path d="M788.776,460.438l-49.307,45.909L693.7,413.989l23.644-53.1c5.976-10.593,15.75-10.733,21.725,0Z" transform="translate(-555.053 -282.317)" fill="#ffa000"/><path d="M184.437,750.938,0,922.483,138.667,658.6Z" transform="translate(0 -526.928)" fill="#f57f17"/><path d="M287.787,520.335c8.834-8.414,17.928-5.576,20.226,6.376l47.948,278.953L196.928,901.14c-5.576,3.118-20.366,4.337-20.366,4.337s-13.451-1.639-18.608-4.477L0,807.982Z" transform="translate(0 -412.427)" fill="#ffca28"/><path d="M138.667,131.672,0,395.556,61.8,9.854C64.117-2.1,70.893-3.317,77.008,7.275Z" transform="translate(0 0)" fill="#ffa000"/></g></svg>