<svg xmlns="http://www.w3.org/2000/svg" width="493.008" height="493" viewBox="0 0 493.008 493"><path d="M483.711,224.538,268.459,9.3a31.751,31.751,0,0,0-44.9,0L178.862,54l56.7,56.7a37.7,37.7,0,0,1,47.749,48.066l54.645,54.647a37.733,37.733,0,1,1-22.628,21.3l-50.961-50.961-.006,134.108A38.169,38.169,0,0,1,274.354,325a37.746,37.746,0,1,1-41.057-8.243V181.4a37.319,37.319,0,0,1-12.366-8.244,37.768,37.768,0,0,1-8.14-41.3L156.9,75.958,9.3,223.543a31.76,31.76,0,0,0,0,44.914L224.558,483.7a31.753,31.753,0,0,0,44.9,0L483.709,269.456a31.771,31.771,0,0,0,0-44.918" transform="translate(0 0)" fill="#de4c36"/></svg>