<svg xmlns="http://www.w3.org/2000/svg" width="451" height="512.564" viewBox="0 0 451 512.564"><g transform="translate(5 -113.4)"><path d="M36.863,574.25-5,113.4l451,.176L404.488,573.9l-184.34,52.065ZM370.54,549.1l35-394.713H220.852l1.407,435.345ZM203.614,212.254H158.76l-.528,236.23L71.163,424.738l.176,54,132.275,35.707V212.254Z" transform="translate(0 0)" fill="#d4b830"/><path d="M155.52,466.862c-5.8-1.759-34.476-9.5-63.675-17.414L38.9,435.2v-26.56c0-26.033,0-26.56,2.638-25.681,1.407.528,20.756,5.8,42.919,11.961L124.738,406l.352-117.851.352-117.851h43.974V320.164c0,119.082-.352,149.864-1.583,149.864-.879-.176-6.508-1.583-12.313-3.166Z" transform="translate(33.319 43.185)" fill="rgba(235,235,235,0)" opacity="0.986"/><path d="M38.476,436.008l-.176-54s55.583,15.655,87.069,23.746L125.9,169.7H170.75V471.715L38.476,436.008Z" transform="translate(32.863 42.73)" fill="rgba(235,235,235,0.92)" opacity="0.986"/><path d="M123.4,136.6H308.092l-35,394.713L123.4,571.945ZM263.59,465.176,275.727,317.6l-89.707,10.026v-78.8l95.688-.352,3.87-53.824-144.411.7L143.1,391.3l87.245-14.951-1.231,43.622-87.949,23.394.879,53.473L263.59,465.176Z" transform="translate(97.452 17.608)" fill="#fdd83c"/></g></svg>