<svg xmlns="http://www.w3.org/2000/svg" width="693.064" height="353.894" viewBox="0 0 693.064 353.894"><g transform="translate(-0.03 -0.293)"><path d="M121.74,10.88C124.25,6.612,127.512,2.512,132.2.5a33.422,33.422,0,0,1,5.772-.165H232.7a31.331,31.331,0,0,0-7.279,7.948c-4.853,7.951-8.119,16.82-11.13,25.69-8.536,26.782-14.479,54.312-20.254,81.844q-3.9,18.709-7.447,37.491c-7.2,40.838-14.644,81.589-23.934,122.007-4.433,18.663-8.953,37.323-15.815,55.314-3.181,7.449-6.276,15.4-12.384,20.92-1.423,1.257-2.845,2.845-4.856,2.6H45.923c-5.691-.168-11.3.333-16.988-.252a33.175,33.175,0,0,0,9.29-10.628C44.5,331.3,48.433,318.33,52.2,305.442c5.859-20.752,10.541-41.757,14.98-62.761,2.761-13.807,6.024-27.532,8.032-41.423,2.26-15.482,5.691-30.8,8.452-46.193,4.352-22.679,8.953-45.355,14.059-67.866,4.1-17.574,8.284-35.066,13.891-52.219,2.764-8.284,5.772-16.484,10.127-24.1Z" transform="translate(49.424 0)" fill="#eb7077"/><path d="M133.225.333c2.425,0,4.851-.084,7.279,0A27.779,27.779,0,0,1,152.888,13.3a162.015,162.015,0,0,1,8.617,19.918c8.371,25.858,14.062,52.469,19.752,79q7.276,35.649,13.807,71.549c.336,1.255-.081,3.013,1.591,3.347-6.027,31.464-11.967,63.013-19.5,94.228-4.1,16.82-8.455,33.557-14.644,49.791-3.349,8.116-6.78,16.986-13.894,22.763-4.517,1-7.783-2.428-10.541-5.525-4.769-6.108-7.7-13.306-10.547-20.5-9.457-25.771-15.23-52.634-21.086-79.413-4.436-20.839-8.371-41.841-12.471-62.761-1.843-10.631-4.349-21.091-5.772-31.717-.252-.168-.84-.5-1.089-.669q3.542-18.782,7.447-37.492c5.775-27.532,11.717-55.064,20.254-81.841,3.011-8.872,6.276-17.742,11.13-25.69A31.348,31.348,0,0,1,133.223.333Z" transform="translate(148.904 0.003)" fill="#f6a2ad"/><path d="M199.1,14.8c3.016-5.772,6.7-12.216,13.224-14.392C245.546.238,278.77.322,311.99.322c-3.1,3.095-6.36,6.192-8.455,10.124C297.094,22,293.327,34.8,289.479,47.436c-9.875,34.811-16.82,70.376-23.432,105.94-6.108,35.066-12.636,70.126-20.083,105.024-3.848,17.571-7.867,35.061-12.969,52.382-3.265,10.712-6.693,21.508-12.051,31.467-2.6,4.517-5.61,9.457-10.544,11.8-31.716.252-63.517,0-95.231.081a38.554,38.554,0,0,1-5.357-.249c7.113-5.772,10.544-14.644,13.894-22.763,6.192-16.232,10.541-32.968,14.644-49.789,7.531-31.215,13.471-62.761,19.5-94.228,7.279-40.586,14.9-81.172,24.6-121.256,4.517-17.322,8.869-34.9,16.652-51.046Z" transform="translate(187.713 0.013)" fill="#eb7077"/><path d="M213.408.333c2.677,0,5.439-.084,8.116,0,4.352,2.26,7.449,6.108,10.211,10.04,4.517,7.2,7.363,15.316,10.292,23.264,6.945,21.34,12.135,43.266,16.9,65.189,6.36,29.54,11.883,59.249,17.322,88.955,1.339,7.113,2.677,14.308,3.515,21.508l1.255,1.255c-3.011,4.184-4.184,9.205-5.856,13.975-5.273,16.988-8.7,34.562-11.634,52.051a280.26,280.26,0,0,1-9.623,40.586c-3.179,9.791-7.029,19.5-13.387,27.7a29.868,29.868,0,0,1-11.634,8.953c-6.945.753-11.048-5.94-14.395-10.878-6.945-12.135-10.709-25.69-14.728-38.914-13.222-48.954-21.842-99.079-31.128-148.87a2.2,2.2,0,0,0-1.173-1.759c6.612-35.565,13.558-71.129,23.432-105.94,3.848-12.636,7.615-25.44,14.059-36.99,2.092-3.932,5.355-7.029,8.452-10.124Z" transform="translate(286.295 0.003)" fill="#f6a2ad"/><path d="M.03,70.878c2.179-.168,4.355-.5,6.612-.5H97.857c3.848.5,7.867.168,11.55,1.843a32.906,32.906,0,0,1,13.639,10.46c.42-.252,1.173-.921,1.591-1.257-2.008,13.891-5.271,27.614-8.032,41.423-4.436,21-9.121,42.009-14.98,62.761-3.767,12.888-7.7,25.858-13.975,37.825a33.2,33.2,0,0,1-9.289,10.628c-1.423.252-2.509-.753-3.683-1.507-3.932-2.509-6.192-6.861-8.617-10.793-11.466-26.11-12.72-54.981-19.834-82.261-3.6-13.639-8.035-27.2-14.56-39.749-4.019-7.533-8.953-14.728-15.4-20.5A41.809,41.809,0,0,0,.033,70.878Z" transform="translate(0 119.835)" fill="#f6a2ad"/><path d="M249.63,79.714c5.271-5.943,13.138-9.707,21.088-9.373h68.62c9.539.168,19.162-.333,28.7.252-2.845,1.924-6.276,2.677-9.289,4.268a55.448,55.448,0,0,0-25.1,22.676c-9.121,15.9-12.3,34.145-14.98,52.051-2.677,17.574-2.593,35.733-8.284,52.8-3.848,11.967-9.707,24.015-19.834,31.882-31.462.336-62.929.084-94.309.168a29.684,29.684,0,0,1-6.108-.336,29.815,29.815,0,0,0,11.631-8.953c6.36-8.2,10.211-17.907,13.39-27.7a280.345,280.345,0,0,0,9.623-40.586c2.929-17.49,6.36-35.066,11.634-52.051,1.672-4.769,2.845-9.791,5.856-13.975C244.777,87.161,246.449,82.893,249.63,79.714Z" transform="translate(325.053 119.703)" fill="#eb7077"/></g></svg>