<svg xmlns="http://www.w3.org/2000/svg" width="447.125" height="511" viewBox="0 0 447.125 511"><path d="M447.125,73v45.625c0,40.207-100.137,73-223.562,73S0,158.832,0,118.625V73C0,32.793,100.137,0,223.563,0S447.125,32.793,447.125,73Zm0,102.656V278.312c0,40.207-100.137,73-223.562,73S0,318.52,0,278.312V175.656c48.031,33.078,135.942,48.477,223.563,48.477S399.093,208.735,447.125,175.656Zm0,159.688V438c0,40.207-100.137,73-223.562,73S0,478.207,0,438V335.344c48.031,33.078,135.942,48.477,223.563,48.477S399.093,368.422,447.125,335.344Z" fill="#adadad"/></svg>