<svg xmlns="http://www.w3.org/2000/svg" xmlns:xlink="http://www.w3.org/1999/xlink" width="451" height="439.726" viewBox="0 0 451 439.726"><defs><radialGradient id="a" cx="0.329" cy="0.224" r="0.781" gradientTransform="translate(-0.01 0.01) scale(0.973 0.968)" gradientUnits="objectBoundingBox"><stop offset="0" stop-color="#34364e" stop-opacity="0.98"/><stop offset="1" stop-color="#0c0824"/></radialGradient></defs><g transform="translate(0 -130.746)"><path d="M24.8,155.549H438.22V557.691H24.8Z" transform="translate(-6.012 -6.012)" fill="url(#a)"/><path d="M18.791,149.537H432.209V551.68H18.791ZM0,570.472H451V130.746H0ZM304.049,311.146c-14.846,0-19.919,7.516-19.919,13.718,0,6.765,3.382,11.463,23.3,21.8,29.5,14.282,38.711,28,38.711,48.107,0,30.066-22.926,46.227-53.932,46.227-16.349,0-30.443-3.383-38.523-8.08-1.315-.564-1.5-1.5-1.5-3.007V402.286c0-1.879.939-2.443,2.255-1.5a69.748,69.748,0,0,0,37.771,11.087c14.846,0,21.047-6.2,21.047-14.658,0-6.765-4.322-12.778-23.3-22.55-26.684-12.778-37.771-25.744-37.771-47.355,0-24.242,18.98-44.348,51.865-44.348,16.161,0,27.436,2.443,33.637,5.262a4.162,4.162,0,0,1,1.879,3.758v25.744c0,1.5-.939,2.443-2.819,1.879C328.478,314.341,316.264,311.146,304.049,311.146ZM142.441,333.508c4.322.376,7.705.376,15.221.376,21.987,0,42.657-7.7,42.657-37.583,0-23.865-14.846-35.893-39.838-35.893-7.516,0-14.658.376-18.041.564Zm-33.448-99.784c0-1.315,2.631-2.255,4.134-2.255,12.027-.564,29.879-.939,48.483-.939,52.053,0,72.347,28.563,72.347,65.02,0,47.73-34.577,68.214-77.045,68.214-7.141,0-9.583-.376-14.658-.376v72.16c0,1.5-.564,2.255-2.255,2.255H111.247c-1.5,0-2.255-.564-2.255-2.255V233.724Z" fill="#31c5f0"/></g></svg>