<svg xmlns="http://www.w3.org/2000/svg" width="201.093" height="196.065" viewBox="0 0 201.093 196.065">
  <g id="pp" transform="translate(-577.485 -614.254)">
    <g id="g4" transform="translate(585.864 622.633)">
      <rect id="rect2" width="184.335" height="179.307" transform="translate(0 0)" fill="#2a0034"/>
    </g>
    <g id="g8" transform="translate(577.485 614.254)">
      <path id="path6" d="M0,0V196.065H201.093V0ZM8.379,8.379H192.714V187.686H8.379Z" fill="#ea77ff" fill-rule="evenodd"/>
    </g>
    <path id="path10" d="M1349.135,1266.68c0-.553.138-.968.829-.968,5.392-.276,13.272-.415,21.567-.415,23.226,0,33.318,12.719,33.318,29.033,0,21.291-15.4,30.415-34.345,30.415-3.18,0-4.286-.137-6.5-.137v32.2c0,.692-.276.969-.968.969H1350.1c-.691,0-.968-.276-.968-.969Zm14.872,44.516c1.936.139,3.456.139,6.774.139,9.816,0,19-3.456,19-16.728,0-10.645-6.556-16.038-17.755-16.038-3.318,0-6.5.139-8.019.277Zm53.624-7.6c0-.967,0-3.456-.414-8.156,0-.692.1-.83.649-1.106a87.3,87.3,0,0,1,30.635-5.807c.692,0,.969.137.969.829v12.166c0,.691-.223.83-.913.83-5.254-.277-12.941.414-15.844,1.658v52.8c0,.692-.276.969-.969.969H1418.6c-.691,0-.968-.276-.968-.969Z" transform="translate(-718.888 -606.528)" fill="#ea77ff" fill-rule="evenodd"/>
  </g>
</svg>
