<svg xmlns="http://www.w3.org/2000/svg" width="451.001" height="439.726" viewBox="0 0 451.001 439.726"><path d="M371.138,439.726H79.863A79.793,79.793,0,0,1,0,359.863v-280A79.793,79.793,0,0,1,79.863,0H371.138A79.793,79.793,0,0,1,451,79.863v280A79.793,79.793,0,0,1,371.138,439.726Z" fill="#ff26be"/><path d="M449.4,506.33H172.409A68.33,68.33,0,0,1,104.2,438.121V172.409A68.33,68.33,0,0,1,172.409,104.2H449.216a68.2,68.2,0,0,1,68.209,68.209V437.941A68.1,68.1,0,0,1,449.4,506.33Z" transform="translate(-85.402 -85.402)" fill="#2e001f"/><path d="M560.824,691.623l52.623,101.1c.938,1.5.379,3.013-1.136,3.013H579.6a3.684,3.684,0,0,1-3.951-2.435c-12.033-24.8-24.246-49.61-36.838-76.291h-.379c-11.275,25.184-23.687,51.685-35.7,76.49a3.625,3.625,0,0,1-3.392,2.075H468.369c-1.876,0-2.075-1.5-1.118-2.634l51.486-98.1-49.79-99.22a1.519,1.519,0,0,1,1.118-2.634h32.328c1.876,0,2.634.379,3.373,2.075,11.834,24.805,23.867,50.368,35.142,75.353h.379c10.9-24.805,22.929-50.548,34.583-75.173.938-1.5,1.5-2.435,3.392-2.435h30.253c1.5,0,2.075,1.137,1.137,2.634Zm61.841,30.632c0-43.783,29.135-77.987,75.353-77.987a82.839,82.839,0,0,1,9.778.379V594.857a1.873,1.873,0,0,1,1.876-1.876h29.694c1.5,0,1.876.559,1.876,1.5V766.995a134.224,134.224,0,0,0,.938,18.419c0,1.137-.379,1.5-1.5,2.075a111.87,111.87,0,0,1-48.113,10.9c-40.789.162-69.923-25-69.905-76.129Zm85.113-48.095a28.248,28.248,0,0,0-10.9-1.876c-23.687,0-40.211,18.22-40.211,48.492,0,34.583,16.922,48.492,38.155,48.492,4.51,0,9.4-.559,12.971-2.075V674.161Z" transform="translate(-382.499 -485.859)" fill="#ffd9f2"/></svg>