<svg id="Layer_1" data-name="Layer 1" xmlns="http://www.w3.org/2000/svg" viewBox="0 0 137.73 558.96"><defs><style>.cls-1,.cls-4{fill:#fac696;}.cls-2{fill:#3a2719;stroke:#a57e6e;}.cls-10,.cls-12,.cls-2,.cls-3,.cls-4,.cls-5{stroke-miterlimit:10;}.cls-3{fill:#f4b486;stroke:#f4b486;}.cls-10,.cls-3,.cls-4,.cls-5{stroke-width:10px;}.cls-4{stroke:#885543;}.cls-5{fill:#e8a17b;stroke:#e8a17b;}.cls-6{fill:#3a2718;}.cls-7{fill:#d69b73;}.cls-10,.cls-8{fill:#fff;}.cls-9{fill:#283368;}.cls-10,.cls-12{stroke:#fff;}.cls-11{fill:#fab178;}.cls-12{fill:none;}</style></defs><rect class="cls-1" x="72.14" y="289.99" width="20.67" height="258.46"/><rect class="cls-1" x="262.76" y="391.91" width="20.67" height="258.46" transform="translate(330.31 940.36) rotate(-180)"/><rect class="cls-1" x="15.23" y="196.13" width="11.35" height="120.55"/><rect class="cls-1" x="107.92" y="194.22" width="11.35" height="120.55"/><g id="Me"><path class="cls-2" d="M353.11,185.05v53.54c0,24.6-16.64,44.72-37,44.72H253.38c-20.35,0-37-20.12-37-44.72V185.05c0-33.06,16.28-61.74,39.63-74.93a59.53,59.53,0,0,1,17.77-6.63,56.19,56.19,0,0,1,18.59-.56h0a57.79,57.79,0,0,1,12.69,3.23,60.62,60.62,0,0,1,8.63,4.08h0A70.47,70.47,0,0,1,333,126.69q2.09,2.51,4,5.21C347,146.3,353.11,164.86,353.11,185.05Z" transform="translate(-215.88 -101.91)"/><rect class="cls-3" x="61.98" y="129.3" width="15.27" height="31.26" rx="7.63"/><path class="cls-1" d="M55.75,27.35H83.7a35.76,35.76,0,0,1,35.76,35.76V86.7a49.73,49.73,0,0,1-49.73,49.73h0A49.73,49.73,0,0,1,20,86.7V63.11A35.76,35.76,0,0,1,55.75,27.35Z"/><path class="cls-4" d="M254,174.39a9,9,0,1,1,18,0" transform="translate(-215.88 -101.91)"/><path class="cls-4" d="M299,174.11a9,9,0,0,1,18,0" transform="translate(-215.88 -101.91)"/><circle class="cls-5" cx="32.22" cy="86.55" r="4.66"/><circle class="cls-5" cx="107.13" cy="86.55" r="4.66"/><path class="cls-6" d="M305.06,105.51a68.26,68.26,0,0,0-12.69-2.67h0a5.48,5.48,0,0,0-1.56,1.07c-3.89,3.89-1,13.72,6.7,25.65A157.83,157.83,0,0,0,318.4,155c12.26,12.26,24.88,21.53,34.71,26.12v-10.3a68,68,0,0,0-16.11-44,142.71,142.71,0,0,0-23.28-17.91l0,0Z" transform="translate(-215.88 -101.91)"/><path class="cls-6" d="M311,115.55c0,5.9-5.37,11.08-13.44,14a47.15,47.15,0,0,1-31.19-.23c-7.73-3-12.82-8-12.82-13.78a10.89,10.89,0,0,1,2.51-6.76,67.73,67.73,0,0,1,17.77-5.49,67.92,67.92,0,0,1,18.59-.46h0a68.26,68.26,0,0,1,12.69,2.67C308.75,108.3,311,111.78,311,115.55Z" transform="translate(-215.88 -101.91)"/><path class="cls-6" d="M266.32,129.33a161.28,161.28,0,0,1-17.91,24.77c-11.06,12.75-22.67,22.7-32,28.08v-11.4a68.59,68.59,0,0,1,39.63-62,67.73,67.73,0,0,1,17.77-5.49C275.83,108.23,272.9,117.87,266.32,129.33Z" transform="translate(-215.88 -101.91)"/><rect class="cls-3" x="69.62" y="88.41" width="2.21" height="9.33" rx="1.11"/><path class="cls-7" d="M275.19,244.16l20.45,4.94V237.32s-11,2.28-20.45.17" transform="translate(-215.88 -101.91)"/></g><path class="cls-8" d="M226.95,268.13h3.28a26.36,26.36,0,0,1,26.36,26.36v3.28a0,0,0,0,1,0,0H226.95a0,0,0,0,1,0,0V268.13A0,0,0,0,1,226.95,268.13Z" transform="translate(-257.07 422.8) rotate(-90)"/><rect class="cls-9" x="8.93" y="193.07" width="29.78" height="3.25"/><path class="cls-8" d="M96.56,165.6h3.28A26.36,26.36,0,0,1,126.2,192v6.53a0,0,0,0,1,0,0H96.56a0,0,0,0,1,0,0V165.6A0,0,0,0,1,96.56,165.6Z"/><path id="Smile" class="cls-10" d="M297.93,209.49c0,7.69-5.6,13.92-12.51,13.92s-12.51-6.23-12.51-13.92" transform="translate(-215.88 -101.91)"/><path class="cls-9" d="M52.31,157.88H84.25a19.58,19.58,0,0,1,19.58,19.58V214a0,0,0,0,1,0,0H32.73a0,0,0,0,1,0,0V177.45A19.58,19.58,0,0,1,52.31,157.88Z"/><rect class="cls-8" x="44.81" y="149.02" width="46.38" height="10.64"/><path class="cls-9" d="M55,202.36H81a36.07,36.07,0,0,1,36.07,36.07v64.89a0,0,0,0,1,0,0H18.93a0,0,0,0,1,0,0V238.43A36.07,36.07,0,0,1,55,202.36Z"/><path class="cls-8" d="M36.26,202.36h64a3.53,3.53,0,0,1,3.53,3.53v4.62a0,0,0,0,1,0,0H32.73a0,0,0,0,1,0,0v-4.62A3.53,3.53,0,0,1,36.26,202.36Z"/><rect class="cls-9" x="93.21" y="195.24" width="29.78" height="3.25"/><rect class="cls-11" x="72.14" y="303.32" width="20.67" height="16.34"/><rect class="cls-9" x="72.14" y="363.99" width="20.67" height="184.46"/><path class="cls-9" d="M72.14,548.45h36.65a2.63,2.63,0,0,1,2.63,2.63v5.26a2.63,2.63,0,0,1-2.63,2.63H72.14a0,0,0,0,1,0,0V548.45a0,0,0,0,1,0,0Z"/><rect class="cls-11" x="262.76" y="405.23" width="20.67" height="16.34" transform="translate(330.31 724.88) rotate(-180)"/><rect class="cls-9" x="262.76" y="465.9" width="20.67" height="184.46" transform="translate(330.31 1014.35) rotate(-180)"/><path class="cls-9" d="M244.16,650.36H280.8a2.63,2.63,0,0,1,2.63,2.63v5.26a2.63,2.63,0,0,1-2.63,2.63H244.16a0,0,0,0,1,0,0V650.36A0,0,0,0,1,244.16,650.36Z" transform="translate(311.7 1209.32) rotate(-180)"/><circle class="cls-1" cx="20.91" cy="318.09" r="10.58"/><circle class="cls-1" cx="113.6" cy="318.09" r="10.58"/><line class="cls-12" x1="109.12" y1="216.55" x2="109.12" y2="303.32"/><line class="cls-12" x1="96.38" y1="210.51" x2="96.38" y2="303.37"/><line class="cls-12" x1="83.36" y1="210.51" x2="83.36" y2="303.37"/><line class="cls-12" x1="68.91" y1="209.77" x2="68.91" y2="316.6"/><line class="cls-12" x1="55.6" y1="210.51" x2="55.6" y2="303.32"/><line class="cls-12" x1="42.43" y1="210.51" x2="42.43" y2="303.32"/><line class="cls-12" x1="30.41" y1="212.05" x2="30.41" y2="303.32"/><line class="cls-12" x1="116.38" y1="300.83" x2="18.93" y2="300.83"/><line class="cls-12" x1="116.38" y1="288.09" x2="19.19" y2="288.09"/><line class="cls-12" x1="116.38" y1="275.07" x2="19.19" y2="275.07"/><line class="cls-12" x1="117.11" y1="260.62" x2="18.93" y2="260.62"/><line class="cls-12" x1="116.38" y1="247.31" x2="18.93" y2="247.31"/><line class="cls-12" x1="116.38" y1="234.14" x2="19.19" y2="234.14"/><line class="cls-12" x1="113.17" y1="222.12" x2="23.57" y2="222.12"/></svg>