<svg xmlns="http://www.w3.org/2000/svg" xmlns:xlink="http://www.w3.org/1999/xlink" width="390" height="812" viewBox="0 0 390 812">
  <defs>
    <linearGradient id="linear-gradient" x1="-0.076" x2="1.166" y2="1.021" gradientUnits="objectBoundingBox">
      <stop offset="0" stop-color="#97dffc"/>
      <stop offset="1" stop-color="#6236c1"/>
    </linearGradient>
  </defs>
  <g id="mobile_contact_bg" transform="translate(7 -2834)">
    <rect id="Rectangle_140" data-name="Rectangle 140" width="390" height="812" transform="translate(-7 2834)" fill="rgba(255,255,255,0)"/>
    <path id="Subtraction_14" data-name="Subtraction 14" d="M-2288.111,386.676a1.683,1.683,0,0,1-1.21-.53,3.066,3.066,0,0,1-.779-2.191l.258-32.518c-.926-.212-1.845-.432-2.731-.655l.485-19.274a2.581,2.581,0,0,0-.722-1.888,2.754,2.754,0,0,0-2-.806c-.1,0-.2,0-.3.014a3.505,3.505,0,0,0-3.165,3.253l-.427,17.01c-1-.3-1.975-.609-2.9-.912l-.308,19.463a3.244,3.244,0,0,1-2.657,3.235,2.379,2.379,0,0,1-.239.013,2.187,2.187,0,0,1-1.565-.661,2.813,2.813,0,0,1-.76-2.049l.345-21.814c-1.283-.478-2.589-.989-3.879-1.517l.2-25.6a3.073,3.073,0,0,0-.78-2.192,1.683,1.683,0,0,0-1.208-.529,1.72,1.72,0,0,0-.192.011c-1.215.14-2.214,1.585-2.228,3.219l-.185,23.2a118.55,118.55,0,0,1-26.256-16.164,96.28,96.28,0,0,1-20.331-22.664,67.517,67.517,0,0,1-6.14-12.493,100.591,100.591,0,0,1-4.18-14.629,177.655,177.655,0,0,1-3.344-34.041c-.255-21.478,2.213-47,7.334-75.848,2.517-14.174,7.08-36.879,14.526-64.557,4.487-16.678,7.877-27.19,7.91-27.292h189.868l0,0c.195.176,4.836,4.4,11.27,11.211a284.786,284.786,0,0,1,24.12,29.189c9.944,13.912,17.484,27.531,22.412,40.478a108.1,108.1,0,0,1,6.018,22.385,76.5,76.5,0,0,1,.132,22.7,73.15,73.15,0,0,1-2.56,11.122,64.712,64.712,0,0,1-3.948,9.683,67.378,67.378,0,0,1-11.322,15.908,109.166,109.166,0,0,1-14.648,12.717c-3.066,2.267-6.486,4.638-11.09,7.69l-.212,36.732c-.009,1.635-.954,3.077-2.108,3.216a1.5,1.5,0,0,1-.179.011,1.556,1.556,0,0,1-1.112-.492,3.14,3.14,0,0,1-.783-2.233l.2-34.473-.431.282-.771.5-.052.034-2.327,1.524.174-30.16a3.141,3.141,0,0,0-.784-2.233,1.555,1.555,0,0,0-1.112-.492,1.487,1.487,0,0,0-.178.011c-1.153.138-2.1,1.581-2.108,3.216l-.187,32.43c-1.049.7-2.022,1.353-2.976,2l-.13,22.54c-.01,1.635-.956,3.077-2.109,3.216a1.506,1.506,0,0,1-.179.011,1.556,1.556,0,0,1-1.112-.492,3.14,3.14,0,0,1-.783-2.233l.116-20.135c-9.137,6.466-16.016,12.4-21.645,18.673a82.21,82.21,0,0,0-16.047,26.312,51.985,51.985,0,0,1-10.595,17.114,59.256,59.256,0,0,1-15.986,12.042c-11.8,6.188-26.51,9.458-42.552,9.458h-.013a127.34,127.34,0,0,1-24.192-2.374l-.247,31.078c-.013,1.635-1.011,3.08-2.227,3.22A1.766,1.766,0,0,1-2288.111,386.676Z" transform="translate(452.23 5697.962) rotate(90)" fill="url(#linear-gradient)"/>
    <g id="contact_illustration" transform="translate(170.966 3378)">
      <ellipse id="Ellipse_24" data-name="Ellipse 24" cx="62" cy="61.5" rx="62" ry="61.5" transform="translate(33.034 -1)" fill="#f2f2f2"/>
      <path id="Path_170" data-name="Path 170" d="M280.937,783.827c0,2.568-33.9,7.97-75.718,7.97s-75.719-5.4-75.719-7.97,33.9-1.328,75.719-1.328S280.937,781.259,280.937,783.827Z" transform="translate(-129.504 -662.839)" fill="#3f3d56"/>
      <path id="Path_171" data-name="Path 171" d="M280.937,783.827c0,2.568-33.9,7.97-75.718,7.97s-75.719-5.4-75.719-7.97,33.9-1.328,75.719-1.328S280.937,781.259,280.937,783.827Z" transform="translate(-129.504 -662.839)" opacity="0.1"/>
      <ellipse id="Ellipse_25" data-name="Ellipse 25" cx="76" cy="4.5" rx="76" ry="4.5" transform="translate(0.034 117)" fill="#3f3d56"/>
      <g id="leaf" transform="translate(119.915 93.425)">
        <g id="left-leafs" transform="translate(0 5.547)">
          <path id="Path_172" data-name="Path 172" d="M851.689,659.413c0,10.495,6.584,18.987,14.721,18.987" transform="translate(-851.689 -659.413)" fill="#3f3d56"/>
          <path id="Path_174" data-name="Path 174" d="M883.809,665.142c0,9.969,4.2,18.036,9.387,18.036" transform="translate(-878.475 -664.191)" fill="#97dffc"/>
        </g>
        <g id="right-leafs" transform="translate(14.721)">
          <path id="Path_173" data-name="Path 173" d="M940.34,677.329c0-10.613,7.348-19.2,16.427-19.2" transform="translate(-940.34 -652.794)" fill="#97dffc"/>
          <path id="Path_175" data-name="Path 175" d="M940.34,650.542c0-13.561,8.492-24.534,18.987-24.534" transform="translate(-940.34 -626.008)" fill="#3f3d56"/>
        </g>
        <path id="Path_176" data-name="Path 176" d="M921.69,768.9a7.652,7.652,0,0,0,2.717-.512c.629-.448,3.211-.983,3.367-.264s3.137,3.574.78,3.593-5.476-.367-6.1-.75S921.69,768.9,921.69,768.9Z" transform="translate(-910.067 -744.233)" fill="#a8a8a8"/>
      </g>
      <path id="Path_177" data-name="Path 177" d="M928.6,777.119c-2.357.019-5.476-.367-6.1-.75-.478-.291-.669-1.336-.733-1.819l-.07,0s.132,1.684.76,2.066,3.747.769,6.1.75c.68-.006.915-.248.9-.606C929.363,776.98,929.1,777.115,928.6,777.119Z" transform="translate(-790.151 -656.46)" opacity="0.2"/>
      <path id="Path_178" data-name="Path 178" d="M702.135,279.037s2.124,4.461,1.274,6.585,3.186,4.461,3.186,4.461l5.31-2.974v-3.823l-.85-1.7s-3.4-1.912-2.974-4.886S702.135,279.037,702.135,279.037Z" transform="translate(-607.053 -240.523)" fill="#ffb9b9"/>
      <path id="Path_179" data-name="Path 179" d="M702.135,279.037s2.124,4.461,1.274,6.585,3.186,4.461,3.186,4.461l5.31-2.974v-3.823l-.85-1.7s-3.4-1.912-2.974-4.886S702.135,279.037,702.135,279.037Z" transform="translate(-607.053 -240.523)" opacity="0.1"/>
      <path id="Path_180" data-name="Path 180" d="M646.005,407.888s-.425,4.673-.425,5.31a18.2,18.2,0,0,1-.637,2.761s-2.337,10.833-3.823,11.9-2.337,7.647,0,7.222,2.974-6.16,2.974-6.16l4.836-9.132.687-11.047Z" transform="translate(-554.959 -350.681)" fill="#ffb9b9"/>
      <path id="Path_181" data-name="Path 181" d="M675.736,351.6h-1.7s-1.7,10.2,0,10.621a27.069,27.069,0,0,0,4.886.425Z" transform="translate(-582.991 -303.742)" fill="#575a89"/>
      <path id="Path_182" data-name="Path 182" d="M616.129,682.618l.85,4.036,1.7-1.274-.85-3.611-1.7.637Z" transform="translate(-513.825 -569.121)" fill="#ffb9b9"/>
      <path id="Path_183" data-name="Path 183" d="M692.494,487.2l-1.275.85s-.637,7.435.85,13.17,2.549,12.532,2.549,12.532,2.549,16.993,3.186,17.418,4.673.637,4.885-.212-1.487-16.781-1.487-16.781-1.274-13.382-.212-15.081c0,0,3.4,14.657,4.461,16.144,0,0,1.487,16.144,2.337,16.568s4.885.637,5.1-.212-1.274-19.117-1.912-20.6-.85-23.578-2.337-23.366S692.494,487.2,692.494,487.2Z" transform="translate(-597.837 -416.824)" fill="#2f2e41"/>
      <circle id="Ellipse_26" data-name="Ellipse 26" cx="4.886" cy="4.886" r="4.886" transform="translate(92.321 30.655)" fill="#ffb9b9"/>
      <path id="Path_184" data-name="Path 184" d="M685.77,312.777l-1.062-1.912s-1.274-1.7-1.912-1.274-.637,1.912-.637,1.912-4.886,1.7-4.461,4.036,3.186,6.372,3.186,6.372.425,3.4,0,4.248-1.274,1.487-.637,2.337.85,1.062.637,2.124-.637,1.487-.212,1.912-.212,4.886-.637,5.1,13.595,2.337,14.657,1.7,4.036-.637,3.823-1.274a43.507,43.507,0,0,1-1.062-5.1,18.316,18.316,0,0,0-.212-3.611,17.171,17.171,0,0,1,.212-3.4l-1.062-8.921,3.4-5.31s-.85-2.974-4.885-3.4-5.152-1.487-5.152-1.487-.37,1.912-1.22,2.337S685.77,312.777,685.77,312.777Z" transform="translate(-586.652 -266.403)" fill="#575a89"/>
      <path id="Path_185" data-name="Path 185" d="M791.613,377.187l1.274,9.559-2.761,13.807s-1.062,7.859-3.186,7.647,0-8.5,0-8.5l1.7-12.957s-2.761-6.585-2.124-7.435S791.613,377.187,791.613,377.187Z" transform="translate(-676.989 -325.078)" fill="#ffb9b9"/>
      <path id="Path_186" data-name="Path 186" d="M719.719,753.172s-2.761-1.487-3.4-1.274-1.274,3.186-1.274,3.186-4.886,3.611-1.7,4.461,4.461-1.062,4.461-1.062,3.186-1.7,3.186-2.124-.425-3.186-.425-3.186Z" transform="translate(-615.503 -637.551)" fill="#2f2e41"/>
      <path id="Path_187" data-name="Path 187" d="M791.919,753.281s-1.275,7.01-.425,7.435,4.461,1.062,4.886,0a10.711,10.711,0,0,0,.212-4.461c-.212-.85-.85-2.974-.85-2.974Z" transform="translate(-681.33 -638.722)" fill="#2f2e41"/>
      <path id="Path_188" data-name="Path 188" d="M684.112,230.629a1.133,1.133,0,0,0-.585-.018,1.752,1.752,0,0,0-.59.481,4.755,4.755,0,0,1-1.818.826,2.06,2.06,0,0,0-1.462,1.259,6.853,6.853,0,0,0-.069.793c-.095.77-.682,1.463-.577,2.232.069.5.427.928.5,1.43.082.559-.2,1.141-.043,1.684a2.189,2.189,0,0,0,1.158,1.13q.309-1.965.744-3.908a1.412,1.412,0,0,1,.265-.646c.427-.484,1.265-.208,1.819-.539.211-.126.367-.333.588-.438.64-.306,1.333.372,2.043.378.313,0,.657-.122.921.046a.843.843,0,0,1,.269.331c.253.475.392,1.008.687,1.458a1.353,1.353,0,0,0,1.346.691c-.08-.406.238-.77.365-1.164.219-.677-.139-1.411-.053-2.117.081-.663.513-1.441.039-1.911a1.343,1.343,0,0,0-.56-.281A36.677,36.677,0,0,0,684.112,230.629Z" transform="translate(-587.758 -202.816)" fill="#2f2e41"/>
      <path id="Path_189" data-name="Path 189" d="M787.409,331.134l2.124.85s2.761,8.921,2.124,8.921-6.372,1.487-6.372.85S785.71,331.134,787.409,331.134Z" transform="translate(-676.396 -286.672)" fill="#575a89"/>
      <g id="third-chat" transform="translate(11.62 84.457)">
        <path id="Path_191" data-name="Path 191" d="M135.756,512H70v21.586h2.491v5.646l5.646-5.646h57.619Z" transform="translate(-70 -512)" fill="#3f3d56"/>
        <g id="content" transform="translate(7.638 3.57)">
          <rect id="Rectangle_118" data-name="Rectangle 118" width="50.479" height="1.993" fill="#97dffc" opacity="0.3"/>
          <rect id="Rectangle_119" data-name="Rectangle 119" width="25.24" height="1.993" transform="translate(0 3.819)" fill="#97dffc" opacity="0.3"/>
          <circle id="Ellipse_29" data-name="Ellipse 29" cx="2.823" cy="2.823" r="2.823" transform="translate(0 8.801)" fill="#97dffc" opacity="0.3"/>
        </g>
      </g>
      <g id="second-chat" transform="translate(23.243 55.565)">
        <path id="Path_192" data-name="Path 192" d="M140,338h65.756v21.586h-2.491v5.646l-5.646-5.646H140Z" transform="translate(-140 -338)" fill="#3f3d56"/>
        <g id="content-2" data-name="content" transform="translate(5.978 3.238)">
          <rect id="Rectangle_116" data-name="Rectangle 116" width="50.479" height="1.993" fill="#97dffc"/>
          <rect id="Rectangle_117" data-name="Rectangle 117" width="25.24" height="1.993" transform="translate(0 3.819)" fill="#97dffc"/>
          <circle id="Ellipse_28" data-name="Ellipse 28" cx="2.823" cy="2.823" r="2.823" transform="translate(0 8.801)" fill="#97dffc"/>
        </g>
      </g>
      <g id="first-chat" transform="translate(11.62 26.34)">
        <path id="Path_190" data-name="Path 190" d="M135.756,162H70v21.586h2.491v5.646l5.646-5.646h57.619Z" transform="translate(-70 -162)" fill="#3f3d56"/>
        <g id="content-3" data-name="content" transform="translate(7.638 3.57)">
          <rect id="Rectangle_114" data-name="Rectangle 114" width="50.479" height="1.993" fill="#97dffc" opacity="0.3"/>
          <rect id="Rectangle_115" data-name="Rectangle 115" width="25.24" height="1.993" transform="translate(0 3.819)" fill="#97dffc" opacity="0.3"/>
          <circle id="Ellipse_27" data-name="Ellipse 27" cx="2.823" cy="2.823" r="2.823" transform="translate(0 8.801)" fill="#97dffc" opacity="0.3"/>
        </g>
      </g>
    </g>
  </g>
</svg>
