<svg xmlns="http://www.w3.org/2000/svg" xmlns:xlink="http://www.w3.org/1999/xlink" width="196.064" height="191.156" viewBox="0 0 196.064 191.156">
  <defs>
    <linearGradient id="linear-gradient" y1="0.772" x2="0.519" y2="0.772" gradientUnits="objectBoundingBox">
      <stop offset="0" stop-color="#b0a0ff" stop-opacity="0.102"/>
      <stop offset="0.483" stop-color="#b0a0ff"/>
      <stop offset="1" stop-color="#b0a0ff" stop-opacity="0.102"/>
    </linearGradient>
    <linearGradient id="linear-gradient-2" x1="0" y1="0.864" x2="0.519" y2="0.864" xlink:href="#linear-gradient"/>
  </defs>
  <g id="anim" transform="translate(-83.262 -180.188)">
    <path id="Path_295" data-name="Path 295" d="M83.262,180.188H279.326V371.344H83.262V180.188" fill="#0f0b4a"/>
    <path id="Path_296" data-name="Path 296" d="M83.262,392.381H279.326v4.906H83.262v-4.906m0-21.293H279.326v4.906H83.262v-4.906m0-42.425H279.326v4.906H83.262v-4.906m0-21.293H279.326v4.906H83.262v-4.906m0-21.2H279.326v4.906H83.262v-4.906m0-21.229H279.326v4.907H83.262v-4.907m0-21.293H279.326v4.906H83.262V243.65m0-21.2H279.326v4.906H83.262v-4.906m0,127.44H279.326V354.8H83.262v-4.906" transform="translate(0 -28.345)" opacity="0.08" fill="url(#linear-gradient)"/>
    <path id="Path_297" data-name="Path 297" d="M83.262,338.868H279.326v4.907H83.262v-4.907m0,21.2H279.326v4.906H83.262v-4.906m0-63.716H279.326v4.906H83.262v-4.906m0,21.229H279.326v4.906H83.262v-4.906m0-42.458H279.326v4.906H83.262V275.12m0-21.261H279.326v4.907H83.262v-4.907m0-21.229H279.326v4.906H83.262V232.63m0-21.229H279.326v4.906H83.262V211.4m0-21.261H279.326v4.907H83.262V190.14" transform="translate(0 -6.674)" opacity="0.15" fill="url(#linear-gradient-2)"/>
    <path id="Path_298" data-name="Path 298" d="M211.409,386.511l-6.317,23.763c-.128.641-.385.7-1.218.7H192.2c-.769,0-.9-.256-.769-1.218l22.543-79.012a21.948,21.948,0,0,0,.77-6.254c0-.513.256-.769.641-.769h16.642c.513,0,.769.128.9.769l25.3,85.4c.128.641,0,1.09-.641,1.09H244.47c-.641,0-1.09-.064-1.218-.576l-6.574-23.891h-25.27M233.5,373.466c-2.244-8.787-7.44-27.963-9.427-37.264h-.128c-1.731,9.3-5.932,24.915-9.171,37.264H233.5m32.324-13.95c0-.769,0-3.559-.385-8.145,0-.513.193-.641.706-.9,6.7-2.469,15.359-5.227,24.4-5.227,11.159,0,23.377,4.329,23.377,23.505v41.24c0,.769-.257,1.091-.9,1.091H301.1c-.77,0-1.026-.385-1.026-1.091v-40.18c0-7.568-2.662-11.8-10.583-11.8a27.935,27.935,0,0,0-8.978,1.475v50.668c0,.514-.256.9-.77.9H266.822c-.641,0-.9-.257-.9-.9V359.486h-.1v.032" transform="translate(-72.514 -96.261)" fill="#8689c3"/>
  </g>
</svg>
