<svg xmlns="http://www.w3.org/2000/svg" xmlns:xlink="http://www.w3.org/1999/xlink" width="375" height="812" viewBox="0 0 375 812">
  <defs>
    <linearGradient id="linear-gradient" x1="-0.076" x2="1.166" y2="1.021" gradientUnits="objectBoundingBox">
      <stop offset="0" stop-color="#97dffc"/>
      <stop offset="1" stop-color="#6236c1"/>
    </linearGradient>
  </defs>
  <g id="bg-contact-mobile" transform="translate(0 -2834)">
    <g id="mobile_contact_bg" transform="translate(7)">
      <rect id="Rectangle_140" data-name="Rectangle 140" width="375" height="812" transform="translate(-7 2834)" fill="rgba(255,255,255,0)"/>
      <path id="Subtraction_14" data-name="Subtraction 14" d="M87.206,311.407a1.683,1.683,0,0,1-1.21-.53,3.066,3.066,0,0,1-.779-2.191l.258-32.518c-.926-.212-1.845-.432-2.731-.655l.485-19.274a2.581,2.581,0,0,0-.722-1.888,2.754,2.754,0,0,0-2-.806c-.1,0-.2,0-.3.014a3.505,3.505,0,0,0-3.165,3.253l-.427,17.01c-1-.3-1.975-.609-2.9-.912l-.308,19.463a3.244,3.244,0,0,1-2.657,3.235,2.379,2.379,0,0,1-.239.013,2.187,2.187,0,0,1-1.565-.661,2.813,2.813,0,0,1-.76-2.049l.345-21.814c-1.283-.478-2.589-.989-3.879-1.517l.2-25.6a3.073,3.073,0,0,0-.78-2.192,1.683,1.683,0,0,0-1.208-.529,1.72,1.72,0,0,0-.192.011c-1.215.14-2.214,1.585-2.228,3.219l-.185,23.2a118.55,118.55,0,0,1-26.256-16.164,96.28,96.28,0,0,1-20.331-22.664,67.517,67.517,0,0,1-6.14-12.493,100.591,100.591,0,0,1-4.18-14.629A177.656,177.656,0,0,1,.018,167.7c-.255-21.478,2.213-47,7.334-75.847,2.517-14.174,7.08-36.879,14.526-64.557C26.365,10.614,29.755.1,29.788,0H219.656l0,0c.195.176,4.836,4.4,11.27,11.211A284.786,284.786,0,0,1,255.05,40.4c9.944,13.912,17.484,27.531,22.412,40.478a108.1,108.1,0,0,1,6.018,22.385,76.5,76.5,0,0,1,.132,22.7,73.151,73.151,0,0,1-2.56,11.122,64.712,64.712,0,0,1-3.948,9.683,67.379,67.379,0,0,1-11.322,15.908A109.165,109.165,0,0,1,251.133,175.4c-3.066,2.267-6.486,4.638-11.09,7.69l-.212,36.732c-.009,1.635-.954,3.077-2.108,3.216a1.5,1.5,0,0,1-.179.011,1.556,1.556,0,0,1-1.112-.492,3.14,3.14,0,0,1-.783-2.233l.2-34.473-.431.282-.771.5-.052.034-2.327,1.524.174-30.16a3.141,3.141,0,0,0-.784-2.233,1.555,1.555,0,0,0-1.112-.492,1.487,1.487,0,0,0-.178.011c-1.153.138-2.1,1.581-2.108,3.216l-.187,32.43c-1.049.7-2.022,1.353-2.976,2l-.13,22.54c-.01,1.635-.956,3.077-2.109,3.216a1.506,1.506,0,0,1-.179.011,1.556,1.556,0,0,1-1.112-.492,3.14,3.14,0,0,1-.783-2.233l.116-20.135c-9.137,6.466-16.016,12.4-21.645,18.673a82.21,82.21,0,0,0-16.047,26.312,51.985,51.985,0,0,1-10.595,17.114,59.256,59.256,0,0,1-15.986,12.042c-11.8,6.188-26.51,9.458-42.552,9.458h-.013A127.34,127.34,0,0,1,89.87,277.1l-.247,31.078c-.013,1.635-1.011,3.08-2.227,3.22A1.766,1.766,0,0,1,87.206,311.407Z" transform="translate(367.961 3322.644) rotate(90)" fill="url(#linear-gradient)"/>
    </g>
    <g id="contact" transform="translate(237.02 3369.51)">
      <rect id="Rectangle_216" data-name="Rectangle 216" width="7.288" height="91.132" transform="translate(31.248 102.567)" fill="#fac696"/>
      <path id="Path_295" data-name="Path 295" d="M3.646,0h0A3.642,3.642,0,0,1,7.288,3.642V53.528H0V3.642A3.642,3.642,0,0,1,3.646,0Z" transform="translate(29.63 156.094) rotate(180)" fill="#fac696"/>
      <rect id="Rectangle_217" data-name="Rectangle 217" width="4.002" height="42.505" transform="translate(11.182 69.472)" fill="#fac696"/>
      <g id="Me" transform="translate(5.988 0.49)">
        <path id="Path_296" data-name="Path 296" d="M264.59,131.549v18.878c0,8.674-5.867,15.768-13.046,15.768H229.426c-7.175,0-13.046-7.094-13.046-15.768V131.549c0-11.657,5.74-21.769,13.973-26.42a20.991,20.991,0,0,1,6.266-2.338,19.813,19.813,0,0,1,6.555-.2h0a20.375,20.375,0,0,1,4.474,1.139,21.374,21.374,0,0,1,3.043,1.439h0a24.847,24.847,0,0,1,6.809,5.8q.737.885,1.41,1.837A32.93,32.93,0,0,1,264.59,131.549Z" transform="translate(-216.38 -102.407)" fill="#3a2719" stroke="#a57e6e" stroke-miterlimit="10" stroke-width="1"/>
        <rect id="Rectangle_218" data-name="Rectangle 218" width="5.384" height="11.022" rx="2.692" transform="translate(21.678 45.418)" fill="#f4b486" stroke="#f4b486" stroke-miterlimit="10" stroke-width="10"/>
        <path id="Path_297" data-name="Path 297" d="M49.129,27.35H58.98A12.609,12.609,0,0,1,71.6,39.959v8.318A17.535,17.535,0,0,1,54.062,65.811h0A17.535,17.535,0,0,1,36.52,48.277V39.959A12.609,12.609,0,0,1,49.129,27.35Z" transform="translate(-29.644 -17.879)" fill="#fac696"/>
        <path id="Path_298" data-name="Path 298" d="M254,168.563a3.173,3.173,0,0,1,6.347,0" transform="translate(-240.735 -143.18)" fill="#fac696" stroke="#885543" stroke-miterlimit="10" stroke-width="3"/>
        <path id="Path_299" data-name="Path 299" d="M299,168.283h0a3.173,3.173,0,0,1,6.347,0" transform="translate(-269.868 -142.999)" fill="#fac696" stroke="#885543" stroke-miterlimit="10" stroke-width="3"/>
        <circle id="Ellipse_46" data-name="Ellipse 46" cx="1.643" cy="1.643" r="1.643" transform="translate(9.541 28.701)" fill="#e8a17b" stroke="#e8a17b" stroke-miterlimit="10" stroke-width="3"/>
        <circle id="Ellipse_47" data-name="Ellipse 47" cx="1.643" cy="1.643" r="1.643" transform="translate(35.958 28.701)" fill="#e8a17b" stroke="#e8a17b" stroke-miterlimit="10" stroke-width="3"/>
        <path id="Path_300" data-name="Path 300" d="M294.719,103.781a24.069,24.069,0,0,0-4.474-.941h0a1.932,1.932,0,0,0-.55.377c-1.372,1.372-.353,4.838,2.362,9.044a55.648,55.648,0,0,0,7.366,8.97,47.227,47.227,0,0,0,12.239,9.21v-3.632a23.976,23.976,0,0,0-5.68-15.514,50.319,50.319,0,0,0-8.208-6.315h0Z" transform="translate(-263.45 -102.685)" fill="#3a2718"/>
        <path id="Path_301" data-name="Path 301" d="M273.807,107.037c0,2.08-1.893,3.907-4.739,4.936a16.625,16.625,0,0,1-11-.081c-2.726-1.058-4.52-2.821-4.52-4.859a3.84,3.84,0,0,1,.885-2.384,23.928,23.928,0,0,1,12.82-2.1h0a24.07,24.07,0,0,1,4.474.941A4.616,4.616,0,0,1,273.807,107.037Z" transform="translate(-240.444 -102.4)" fill="#3a2718"/>
        <path id="Path_302" data-name="Path 302" d="M234.008,112.472a56.863,56.863,0,0,1-6.315,8.734,48.157,48.157,0,0,1-11.283,9.9v-4.02a24.185,24.185,0,0,1,13.973-21.861,23.881,23.881,0,0,1,6.266-1.936C237.361,105.032,236.328,108.431,234.008,112.472Z" transform="translate(-216.399 -102.976)" fill="#3a2718"/>
        <rect id="Rectangle_219" data-name="Rectangle 219" width="0.779" height="3.29" rx="0.39" transform="translate(24.375 31)" fill="#f4b486" stroke="#f4b486" stroke-miterlimit="10" stroke-width="3"/>
        <path id="Path_303" data-name="Path 303" d="M275.19,239.732l7.211,1.742V237.32a19.957,19.957,0,0,1-7.211.06" transform="translate(-254.454 -189.748)" fill="#d69b73"/>
      </g>
      <path id="Path_304" data-name="Path 304" d="M0,0H1.157a9.294,9.294,0,0,1,9.294,9.294v1.157H0Z" transform="translate(9.715 69.373) rotate(-90)" fill="#fff"/>
      <rect id="Rectangle_220" data-name="Rectangle 220" width="10.5" height="1.146" transform="translate(8.961 68.393)" fill="#283368"/>
      <path id="Path_305" data-name="Path 305" d="M113.08,165.6h1.157a9.294,9.294,0,0,1,9.294,9.309v2.3H113.08Z" transform="translate(-73.221 -106.893)" fill="#fff"/>
      <path id="Smile" d="M281.732,209.49a4.436,4.436,0,1,1-8.822,0" transform="translate(-246.989 -171.24)" fill="#fff" stroke="#fff" stroke-miterlimit="10" stroke-width="3"/>
      <path id="Path_306" data-name="Path 306" d="M56.16,157.88H67.422a6.9,6.9,0,0,1,6.9,6.9v12.884H49.26V164.78A6.9,6.9,0,0,1,56.16,157.88Z" transform="translate(-31.904 -101.895)" fill="#283368"/>
      <rect id="Rectangle_221" data-name="Rectangle 221" width="16.353" height="3.752" transform="translate(21.615 52.861)" fill="#fff"/>
      <path id="Path_307" data-name="Path 307" d="M48.178,202.36h9.168a12.718,12.718,0,0,1,12.718,12.718v22.88H35.46v-22.88A12.718,12.718,0,0,1,48.178,202.36Z" transform="translate(-22.97 -130.691)" fill="#283368"/>
      <path id="Path_308" data-name="Path 308" d="M50.5,202.36H73.071a1.245,1.245,0,0,1,1.245,1.245v1.629H49.26V203.6A1.245,1.245,0,0,1,50.5,202.36Z" transform="translate(-31.904 -130.691)" fill="#fff"/>
      <rect id="Rectangle_222" data-name="Rectangle 222" width="10.5" height="1.146" transform="translate(38.681 69.158)" fill="#283368"/>
      <rect id="Rectangle_223" data-name="Rectangle 223" width="7.288" height="5.761" transform="translate(31.248 107.267)" fill="#fab178"/>
      <rect id="Rectangle_224" data-name="Rectangle 224" width="7.288" height="65.04" transform="translate(31.248 128.659)" fill="#283368"/>
      <path id="Path_309" data-name="Path 309" d="M88.66,548.45h12.923a.927.927,0,0,1,.927.927v1.855a.927.927,0,0,1-.927.927H88.66Z" transform="translate(-57.412 -354.751)" fill="#283368"/>
      <rect id="Rectangle_225" data-name="Rectangle 225" width="7.288" height="5.761" transform="translate(29.63 113.025) rotate(180)" fill="#fab178"/>
      <path id="Path_310" data-name="Path 310" d="M3.646,0h0A3.642,3.642,0,0,1,7.288,3.642V27.435H0V3.642A3.642,3.642,0,0,1,3.646,0Z" transform="translate(29.63 156.094) rotate(180)" fill="#283368"/>
      <path id="Path_311" data-name="Path 311" d="M.927,0H12A1.855,1.855,0,0,1,13.85,1.855h0A1.855,1.855,0,0,1,12,3.709H.927A.927.927,0,0,1,0,2.782V.927A.927.927,0,0,1,.927,0Z" transform="translate(13.83 128.913) rotate(180)" fill="#283368"/>
      <circle id="Ellipse_48" data-name="Ellipse 48" cx="3.73" cy="3.73" r="3.73" transform="translate(9.454 108.744)" fill="#fac696"/>
      <circle id="Ellipse_49" data-name="Ellipse 49" cx="3.73" cy="3.73" r="3.73" transform="translate(55.74 51.006)" fill="#fac696"/>
      <line id="Line_1" data-name="Line 1" y2="30.595" transform="translate(44.287 76.672)" fill="none" stroke="#fff" stroke-miterlimit="10" stroke-width="1"/>
      <line id="Line_2" data-name="Line 2" y2="32.742" transform="translate(39.795 74.542)" fill="none" stroke="#fff" stroke-miterlimit="10" stroke-width="1"/>
      <line id="Line_3" data-name="Line 3" y2="32.742" transform="translate(35.204 74.542)" fill="none" stroke="#fff" stroke-miterlimit="10" stroke-width="1"/>
      <line id="Line_4" data-name="Line 4" y2="37.668" transform="translate(30.109 74.281)" fill="none" stroke="#fff" stroke-miterlimit="10" stroke-width="1"/>
      <line id="Line_5" data-name="Line 5" y2="32.724" transform="translate(25.416 74.542)" fill="none" stroke="#fff" stroke-miterlimit="10" stroke-width="1"/>
      <line id="Line_6" data-name="Line 6" y2="32.724" transform="translate(20.776 74.542)" fill="none" stroke="#fff" stroke-miterlimit="10" stroke-width="1"/>
      <line id="Line_7" data-name="Line 7" y2="32.181" transform="translate(16.534 75.085)" fill="none" stroke="#fff" stroke-miterlimit="10" stroke-width="1"/>
      <line id="Line_8" data-name="Line 8" x1="34.357" transform="translate(12.49 106.389)" fill="none" stroke="#fff" stroke-miterlimit="10" stroke-width="1"/>
      <line id="Line_9" data-name="Line 9" x1="34.269" transform="translate(12.578 101.897)" fill="none" stroke="#fff" stroke-miterlimit="10" stroke-width="1"/>
      <line id="Line_10" data-name="Line 10" x1="34.269" transform="translate(12.578 97.306)" fill="none" stroke="#fff" stroke-miterlimit="10" stroke-width="1"/>
      <line id="Line_11" data-name="Line 11" x1="34.618" transform="translate(12.49 92.211)" fill="none" stroke="#fff" stroke-miterlimit="10" stroke-width="1"/>
      <line id="Line_12" data-name="Line 12" x1="34.357" transform="translate(12.49 87.518)" fill="none" stroke="#fff" stroke-miterlimit="10" stroke-width="1"/>
      <line id="Line_13" data-name="Line 13" x1="34.269" transform="translate(12.578 82.874)" fill="none" stroke="#fff" stroke-miterlimit="10" stroke-width="1"/>
      <line id="Line_14" data-name="Line 14" x1="31.596" transform="translate(14.123 78.636)" fill="none" stroke="#fff" stroke-miterlimit="10" stroke-width="1"/>
      <path id="Path_312" data-name="Path 312" d="M0,0H4.4V30.775A2.045,2.045,0,0,1,2.352,32.82H2.045A2.045,2.045,0,0,1,0,30.775V0Z" transform="matrix(0.893, 0.45, -0.45, 0.893, 57.832, 53.119)" fill="#fac696"/>
      <rect id="Rectangle_226" data-name="Rectangle 226" width="4.065" height="13.321" transform="translate(43.868 68.798)" fill="#fac696"/>
      <path id="Path_313" data-name="Path 313" d="M2.038,0H4.686A2.049,2.049,0,0,1,6.735,2.049v29.7a2.468,2.468,0,0,1-2.468,2.468h-1.8A2.468,2.468,0,0,1,0,31.751V2.049A2.049,2.049,0,0,1,2.038,0Z" transform="translate(7.413 127.877) rotate(-30)" fill="#283368"/>
    </g>
  </g>
</svg>
