<svg xmlns="http://www.w3.org/2000/svg" width="172.706" height="196.065" viewBox="0 0 172.706 196.065">
  <g id="html" transform="translate(-30)">
    <path id="Path_300" data-name="Path 300" d="M45.7,176.152,30,0H202.706l-15.7,176.152-70.844,19.913" fill="#e34f26"/>
    <path id="Path_301" data-name="Path 301" d="M256,203.579l57.058-15.7L326.461,37H256" transform="translate(-139.456 -22.831)" fill="#ef652a"/>
    <path id="Path_302" data-name="Path 302" d="M168.377,137.655h-28.72l-1.915-22.21h30.635V94H114l.383,5.744,5.361,59.739h48.633Zm0,56.292h-.383l-24.125-6.51L142.338,170.2H120.893l2.681,34.082,44.421,12.254h.383Z" transform="translate(-51.833 -58.004)" fill="#ebebeb"/>
    <path id="Path_303" data-name="Path 303" d="M255,137.655v21.828h26.806l-2.681,27.955L255,193.947v22.593l44.421-12.254.383-3.829,4.978-57.058.766-5.744ZM255,94v21.445h52.463l.383-4.6,1.149-11.105L309.377,94Z" transform="translate(-138.839 -58.004)" fill="#fff"/>
  </g>
</svg>
