<svg xmlns="http://www.w3.org/2000/svg" xmlns:xlink="http://www.w3.org/1999/xlink" width="201.092" height="196.065" viewBox="0 0 201.092 196.065">
  <defs>
    <radialGradient id="radial-gradient" cx="0.329" cy="0.224" r="0.781" gradientTransform="translate(-0.01 0.01) scale(0.973 0.968)" gradientUnits="objectBoundingBox">
      <stop offset="0" stop-color="#34364e" stop-opacity="0.98"/>
      <stop offset="1" stop-color="#0c0824"/>
    </radialGradient>
  </defs>
  <g id="ps" transform="translate(0 -130.746)">
    <path id="Path_306" data-name="Path 306" d="M24.8,155.549H209.136V334.856H24.8Z" transform="translate(-16.423 -16.424)" fill="url(#radial-gradient)"/>
    <path id="Path_307" data-name="Path 307" d="M8.379,139.125H192.713V318.432H8.379ZM0,326.811H201.092V130.746H0ZM135.569,211.183c-6.62,0-8.882,3.351-8.882,6.117,0,3.016,1.508,5.111,10.389,9.72,13.153,6.368,17.26,12.485,17.26,21.45,0,13.406-10.222,20.612-24.047,20.612-7.29,0-13.574-1.508-17.177-3.6-.586-.251-.669-.669-.669-1.341V251.82c0-.838.419-1.089,1.005-.669a31.1,31.1,0,0,0,16.841,4.943c6.62,0,9.384-2.764,9.384-6.536,0-3.016-1.927-5.7-10.389-10.055-11.9-5.7-16.841-11.479-16.841-21.115,0-10.809,8.463-19.774,23.126-19.774,7.206,0,12.233,1.089,15,2.346a1.856,1.856,0,0,1,.838,1.676v11.479c0,.669-.419,1.089-1.257.838C146.462,212.607,141.016,211.183,135.569,211.183Zm-72.058,9.971c1.927.168,3.436.168,6.787.168,9.8,0,19.02-3.433,19.02-16.758,0-10.641-6.62-16-17.763-16-3.351,0-6.536.168-8.044.251ZM48.6,176.662c0-.586,1.173-1.005,1.843-1.005,5.363-.251,13.322-.419,21.618-.419,23.209,0,32.258,12.736,32.258,28.991,0,21.282-15.417,30.415-34.353,30.415-3.184,0-4.273-.168-6.536-.168v32.175c0,.669-.251,1.005-1.005,1.005H49.6c-.669,0-1.005-.251-1.005-1.005V176.662Z" fill="#31c5f0"/>
  </g>
</svg>
