<svg xmlns="http://www.w3.org/2000/svg" xmlns:xlink="http://www.w3.org/1999/xlink" width="191.843" height="191.845" viewBox="0 0 191.843 191.845">
  <defs>
    <clipPath id="clip-path">
      <path id="Path_313" data-name="Path 313" d="M0,0H191.843V191.845H0Z"/>
    </clipPath>
  </defs>
  <g id="wordpress" clip-path="url(#clip-path)">
    <path id="Path_308" data-name="Path 308" d="M418.271,54.946H384.987v3.531c10.411,0,12.085,2.231,12.085,15.432v23.8c0,13.2-1.671,15.62-12.085,15.62C377,112.216,371.6,107.94,364.162,99.757l-8.552-9.3c11.526-2.048,17.662-9.3,17.662-17.48,0-10.225-8.737-18.035-25.1-18.035H315.446v3.531c10.411,0,12.085,2.231,12.085,15.432v23.8c0,13.2-1.672,15.62-12.085,15.62v3.532h37v-3.532c-10.409,0-12.085-2.419-12.085-15.62V91.022h3.161l20.64,25.843h54.109c26.589,0,38.119-14.13,38.119-31.053s-11.53-30.866-38.121-30.866ZM340.364,85.252V60.525h7.622c8.366,0,12.086,5.764,12.086,12.457,0,6.509-3.72,12.271-12.086,12.271ZM418.83,111.1h-1.3c-6.692,0-7.622-1.671-7.622-10.225V60.525h8.925c19.337,0,22.867,14.13,22.867,25.1C441.7,96.967,438.166,111.1,418.83,111.1ZM211.882,92.135,224.71,54.2c3.72-10.97,2.048-14.128-9.853-14.128v-3.72h34.956v3.72c-11.712,0-14.5,2.787-19.15,16.361l-21.2,63.593h-2.416l-18.968-58.2-19.336,58.2h-2.419L145.687,56.434c-4.462-13.574-7.437-16.361-18.223-16.361v-3.72h41.279v3.72c-10.973,0-13.948,2.6-10.041,14.128l12.457,37.936,18.778-55.784h3.536l18.409,55.783ZM275.1,119.28c-20.452,0-37.187-15.06-37.187-33.47,0-18.223,16.735-33.284,37.187-33.284s37.187,15.061,37.187,33.284C312.286,104.22,295.552,119.28,275.1,119.28Zm0-60.986c-17.1,0-23.058,15.429-23.058,27.517,0,12.274,5.953,27.52,23.058,27.52,17.294,0,23.244-15.246,23.244-27.52,0-12.088-5.95-27.517-23.244-27.517Z" transform="translate(72.117 20.567)" fill="#00749a"/>
    <path id="Path_309" data-name="Path 309" d="M382.25,113.145v3.719H339.67v-3.719c12.459,0,14.69-3.161,14.69-21.758V61.641c0-18.6-2.231-21.569-14.69-21.569V36.35h38.488c19.15,0,29.753,9.855,29.753,23.059,0,12.83-10.6,22.87-29.753,22.87h-10.6v9.108c0,18.6,2.231,21.758,14.692,21.758Zm-4.091-70.1h-10.6V75.4h10.6c10.412,0,15.246-7.251,15.246-15.99C393.406,50.484,388.573,43.044,378.159,43.044Zm157.49,56.343-.932,3.346c-1.671,6.136-3.72,8.368-16.921,8.368h-2.6c-9.667,0-11.341-2.231-11.341-15.431V87.117c14.5,0,15.62,1.3,15.62,10.97H523V70.379h-3.534c0,9.669-1.116,10.97-15.62,10.97V60.526h10.225c13.2,0,15.248,2.231,16.921,8.368l.933,3.532H534.9l-1.3-17.477H478.934v3.531c10.411,0,12.086,2.231,12.086,15.432v23.8c0,12.077-1.42,15.119-9.63,15.554-7.8-1.193-13.159-5.447-20.488-13.51l-8.554-9.3c11.529-2.048,17.665-9.3,17.665-17.48,0-10.225-8.739-18.035-25.1-18.035H412.188v3.531c10.411,0,12.086,2.231,12.086,15.432v23.8c0,13.2-1.672,15.62-12.086,15.62v3.532h37v-3.532c-10.409,0-12.086-2.419-12.086-15.62V91.022h3.163l20.639,25.843h76.42l1.116-17.476-2.793,0ZM437.1,85.253V60.526h7.622c8.367,0,12.088,5.764,12.088,12.457,0,6.509-3.72,12.271-12.088,12.271ZM573.393,119.28a27.489,27.489,0,0,1-16.735-6.323,13.345,13.345,0,0,0-2.973,6.323h-3.534V93.622h3.719c1.489,12.273,10.04,19.524,21.011,19.524,5.95,0,10.785-3.348,10.785-8.923,0-4.834-4.275-8.554-11.9-12.086l-10.6-5.02c-7.439-3.536-13.015-9.673-13.015-17.852,0-8.925,8.368-16.547,19.9-16.547a23.286,23.286,0,0,1,14.5,4.835c.929-.745,1.86-2.79,2.418-5.023H590.5V74.472H586.6c-1.3-8.74-6.136-15.991-15.99-15.991-5.206,0-10.041,2.973-10.041,7.625,0,4.834,3.9,7.436,12.83,11.526l10.225,5.02c8.927,4.276,12.457,11.159,12.457,16.737,0,11.712-10.226,19.892-22.684,19.892Zm57.268,0a27.481,27.481,0,0,1-16.735-6.323,13.345,13.345,0,0,0-2.972,6.323h-3.534V93.622h3.719c1.488,12.273,10.038,19.524,21.011,19.524,5.95,0,10.785-3.348,10.785-8.923,0-4.834-4.276-8.554-11.9-12.086l-10.6-5.02C613,83.58,607.419,77.442,607.419,69.264c0-8.925,8.368-16.547,19.9-16.547a23.289,23.289,0,0,1,14.5,4.835c.929-.745,1.859-2.79,2.414-5.023h3.534V74.472h-3.9c-1.3-8.74-6.136-15.991-15.99-15.991-5.206,0-10.043,2.973-10.043,7.625,0,4.834,3.905,7.436,12.832,11.526l10.225,5.02c8.925,4.276,12.456,11.159,12.456,16.737,0,11.712-10.226,19.892-22.682,19.892Z" transform="translate(192.18 20.566)" fill="#464342"/>
    <g id="Group_67" data-name="Group 67">
      <path id="Path_310" data-name="Path 310" d="M8.708,90.993a82.305,82.305,0,0,0,46.377,74.06L15.832,57.5A81.975,81.975,0,0,0,8.708,90.993Zm137.839-4.152c0-10.17-3.653-17.213-6.786-22.694-4.171-6.778-8.079-12.518-8.079-19.3,0-7.564,5.735-14.606,13.816-14.606.365,0,.711.045,1.068.066A82.272,82.272,0,0,0,22.243,45.8c1.931.058,3.752.1,5.3.1,8.607,0,21.93-1.044,21.93-1.044C53.9,44.59,54.427,51.1,50,51.629c0,0-4.459.525-9.42.784l29.966,89.132,18.01-54.009L75.731,52.412c-4.431-.26-8.629-.784-8.629-.784-4.434-.26-3.914-7.04.52-6.778,0,0,13.589,1.044,21.675,1.044,8.606,0,21.93-1.044,21.93-1.044,4.439-.261,4.96,6.254.528,6.778,0,0-4.467.525-9.418.784l29.737,88.457,8.206-27.428C143.84,102.06,146.547,93.885,146.547,86.841Z" transform="translate(4.927 4.927)" fill="#00749a"/>
      <path id="Path_311" data-name="Path 311" d="M71.105,82.724,46.416,154.465a82.31,82.31,0,0,0,50.572-1.311,6.97,6.97,0,0,1-.586-1.134Zm70.761-46.678a63.154,63.154,0,0,1,.554,8.461c0,8.35-1.56,17.737-6.257,29.474l-25.136,72.673A82.3,82.3,0,0,0,141.866,36.046Z" transform="translate(26.261 20.394)" fill="#00749a"/>
      <path id="Path_312" data-name="Path 312" d="M95.923,0a95.923,95.923,0,1,0,95.928,95.92A96.031,96.031,0,0,0,95.923,0Zm0,187.448a91.524,91.524,0,1,1,91.52-91.528,91.631,91.631,0,0,1-91.52,91.528Z" fill="#00749a"/>
    </g>
  </g>
</svg>
