<svg id="xd" xmlns="http://www.w3.org/2000/svg" width="201.092" height="196.065" viewBox="0 0 201.092 196.065">
  <path id="Path_314" data-name="Path 314" d="M165.483,196.065H35.609A35.578,35.578,0,0,1,0,160.456V35.609A35.578,35.578,0,0,1,35.609,0H165.483a35.578,35.578,0,0,1,35.609,35.609V160.456a35.578,35.578,0,0,1-35.609,35.609Z" fill="#ff26be"/>
  <path id="Path_315" data-name="Path 315" d="M258.118,283.5h-123.5A30.467,30.467,0,0,1,104.2,253.089V134.613A30.467,30.467,0,0,1,134.613,104.2H258.036a30.41,30.41,0,0,1,30.413,30.417V253.008A30.364,30.364,0,0,1,258.118,283.5Z" transform="translate(-95.818 -95.818)" fill="#2e001f"/>
  <path id="Path_316" data-name="Path 316" d="M508.662,636.867l23.464,45.078c.418.669.169,1.343-.506,1.343H517.034a1.642,1.642,0,0,1-1.762-1.086c-5.365-11.058-10.811-22.12-16.425-34.017h-.169c-5.027,11.229-10.562,23.045-15.918,34.105a1.616,1.616,0,0,1-1.512.925H467.438c-.836,0-.925-.669-.5-1.174L489.9,638.3l-22.2-44.24a.677.677,0,0,1,.5-1.174h14.414c.836,0,1.174.169,1.5.925,5.277,11.06,10.642,22.458,15.669,33.6h.169c4.86-11.06,10.224-22.538,15.42-33.518.418-.669.669-1.086,1.512-1.086h13.489c.669,0,.925.507.507,1.174Zm27.574,13.658c0-19.522,12.991-34.773,33.6-34.773a36.938,36.938,0,0,1,4.36.169v-22.2a.835.835,0,0,1,.836-.836h13.24c.669,0,.836.249.836.669v76.921a59.849,59.849,0,0,0,.418,8.213c0,.507-.169.669-.669.925a49.881,49.881,0,0,1-21.453,4.86c-18.187.072-31.177-11.147-31.169-33.944Zm37.95-21.445a12.6,12.6,0,0,0-4.86-.836c-10.562,0-17.929,8.124-17.929,21.622,0,15.42,7.545,21.622,17.013,21.622a15.7,15.7,0,0,0,5.784-.925V629.081Z" transform="translate(-429.151 -545.121)" fill="#ffd9f2"/>
</svg>
