<svg id="bg-home-mobile" xmlns="http://www.w3.org/2000/svg" xmlns:xlink="http://www.w3.org/1999/xlink" width="375" height="855.047" viewBox="0 0 375 855.047">
  <defs>
    <linearGradient id="linear-gradient" x1="0.866" y1="0.974" x2="-0.061" y2="0.09" gradientUnits="objectBoundingBox">
      <stop offset="0" stop-color="#97dffc"/>
      <stop offset="1" stop-color="#6236c1"/>
    </linearGradient>
  </defs>
  <g id="MobileBg">
    <rect id="Rectangle_127" data-name="Rectangle 127" width="375" height="812" fill="rgba(255,255,255,0)"/>
    <path id="Bg" d="M-2304.7,383.424a113.613,113.613,0,0,1-38.532-7.039,152.136,152.136,0,0,1-30.854-15.485,177.509,177.509,0,0,1-20.486-15.485c-4.687-4.123-7.317-6.921-7.427-7.038V.378l.03,0c1.254-.063,8.064-.375,19.046-.375a676.278,676.278,0,0,1,81.546,5.065c40.768,5.039,77.85,13.555,110.216,25.313H-2203a3,3,0,0,0-3,3,3,3,0,0,0,3,3h27.289c3.147,1.3,6.281,2.647,9.317,4h60.894a3.5,3.5,0,0,1,3.5,3.5,3.5,3.5,0,0,1-3.5,3.5h-46.159c2.6,1.319,5.173,2.665,7.633,4h26.526a4.505,4.505,0,0,1,4.5,4.5,4.505,4.505,0,0,1-4.5,4.5h-11.136a226.021,226.021,0,0,1,21.8,15.565,182.359,182.359,0,0,1,18.3,17,152.157,152.157,0,0,1,14.741,18.4,134.089,134.089,0,0,1,11.11,19.777,127.159,127.159,0,0,1,7.409,21.118,131.076,131.076,0,0,1,3.637,22.429,146.351,146.351,0,0,1-.2,23.708,174.2,174.2,0,0,1-4.114,24.956,112.683,112.683,0,0,1-9.224,25.008,127.174,127.174,0,0,1-14.394,22.035H-2103.5a2.5,2.5,0,0,0-2.5,2.5,2.5,2.5,0,0,0,2.5,2.5h19.7c-1.784,2.017-3.667,4.036-5.6,6h8.4a3,3,0,0,1,3,3,3,3,0,0,1-3,3h-14.6c-2.188,2.016-4.489,4.035-6.836,6h40.932a4.5,4.5,0,0,1,4.5,4.5,4.5,4.5,0,0,1-4.5,4.5h-52.463c-2.747,2-5.638,4.023-8.592,6H-2168a4,4,0,0,0-4,4,4,4,0,0,0,4,4h32.794a469.189,469.189,0,0,1-48.389,24.834c-16.584,7.475-33.159,14.206-49.187,20.715l-.009,0c-11.123,4.517-21.628,8.783-31.52,13.047a104.239,104.239,0,0,1-20.6,6.477A100.318,100.318,0,0,1-2304.7,383.424Z" transform="translate(-2027.254 855.047) rotate(180)" fill="url(#linear-gradient)"/>
  </g>
  <g id="Me" transform="translate(154.54 550.544)">
    <g id="Layer_1" data-name="Layer 1" transform="translate(0.46 0.456)">
      <g id="Me-2" data-name="Me" transform="translate(0 0)">
        <path id="Path_329" data-name="Path 329" d="M330.527,291.985v63.943c0,29.381-19.88,53.412-44.178,53.412H211.385c-24.3,0-44.185-24.031-44.185-53.412V291.985c0-39.486,19.442-73.744,47.324-89.492a71.031,71.031,0,0,1,21.227-7.923,67.649,67.649,0,0,1,22.2-.664h0a68.379,68.379,0,0,1,15.169,3.858,73.012,73.012,0,0,1,10.317,4.875h.031a84.214,84.214,0,0,1,23.068,19.624q2.481,3,4.736,6.236C323.274,245.7,330.527,267.863,330.527,291.985Z" transform="translate(-167.2 -193.265)" fill="#3a2719" stroke="#a57e6e" stroke-miterlimit="10" stroke-width="1"/>
        <rect id="Rectangle_240" data-name="Rectangle 240" width="18.235" height="37.335" rx="9.117" transform="translate(73.445 153.857)" fill="#f4b486" stroke="#f4b486" stroke-miterlimit="10" stroke-width="10"/>
        <path id="Path_330" data-name="Path 330" d="M81.41,53.12h33.374a42.71,42.71,0,0,1,42.71,42.71V124a59.4,59.4,0,0,1-59.4,59.4h0A59.4,59.4,0,0,1,38.7,124V95.83A42.71,42.71,0,0,1,81.41,53.12Z" transform="translate(-15.395 -21.025)" fill="#fac696"/>
        <path id="Path_331" data-name="Path 331" d="M240.86,327.445a10.745,10.745,0,1,1,21.489,0" transform="translate(-195.968 -241.462)" fill="#fac696" stroke="#885543" stroke-miterlimit="10" stroke-width="6"/>
        <path id="Path_332" data-name="Path 332" d="M329.22,326.9a10.745,10.745,0,1,1,21.489,0" transform="translate(-230.477 -241.251)" fill="#fac696" stroke="#885543" stroke-miterlimit="10" stroke-width="6"/>
        <circle id="Ellipse_54" data-name="Ellipse 54" cx="5.564" cy="5.564" r="5.564" transform="translate(32.337 97.233)" fill="#e8a17b" stroke="#e8a17b" stroke-miterlimit="10" stroke-width="10"/>
        <circle id="Ellipse_55" data-name="Ellipse 55" cx="5.564" cy="5.564" r="5.564" transform="translate(121.817 97.233)" fill="#e8a17b" stroke="#e8a17b" stroke-miterlimit="10" stroke-width="10"/>
        <path id="Path_333" data-name="Path 333" d="M328.807,197.317a80.449,80.449,0,0,0-15.145-3.187h0a6.186,6.186,0,0,0-1.828,1.274c-4.648,4.648-1.172,16.382,8,30.637a188.04,188.04,0,0,0,24.957,30.332c14.625,14.625,29.711,25.713,41.443,31.2v-12.3a81.243,81.243,0,0,0-19.256-52.521,171.339,171.339,0,0,0-27.806-21.381h-.031Z" transform="translate(-222.884 -193.592)" fill="#3a2718"/>
        <path id="Path_334" data-name="Path 334" d="M308.6,208.941c0,7.045-6.411,13.231-16.053,16.729a56.344,56.344,0,0,1-37.25-.274c-9.2-3.516-15.3-9.568-15.3-16.455a13.067,13.067,0,0,1,2.992-8.081,81.2,81.2,0,0,1,43.43-7.1h0a80.446,80.446,0,0,1,15.133,3.212C305.979,200.3,308.6,204.456,308.6,208.941Z" transform="translate(-195.632 -193.246)" fill="#3a2718"/>
        <path id="Path_335" data-name="Path 335" d="M226.881,226.082a192.763,192.763,0,0,1-21.392,29.607c-13.207,15.236-27.072,27.114-38.249,33.521v-13.6a81.919,81.919,0,0,1,47.324-74.036A80.85,80.85,0,0,1,235.791,195C238.234,200.9,234.743,212.418,226.881,226.082Z" transform="translate(-167.216 -193.932)" fill="#3a2718"/>
        <rect id="Rectangle_241" data-name="Rectangle 241" width="2.645" height="11.147" rx="1.323" transform="translate(82.581 105.016)" fill="#f4b486" stroke="#f4b486" stroke-miterlimit="10" stroke-width="10"/>
        <path id="Path_336" data-name="Path 336" d="M282.712,466.427l28.234,5.344.063-14.234s-16.757,2.307-28.156-.047" transform="translate(-214.353 -296.817)" fill="#d69b73"/>
      </g>
    </g>
    <g id="C_D_G_K_N_S_T_X_Z_Y" data-name="C,D,G,K,N,S,T,X,Z,Y" transform="translate(66.841 128.936)">
      <g id="C_D_G_K_N_S_T_X_Z_Y-2" data-name="C,D,G,K,N,S,T,X,Z,Y">
        <path id="Path_337" data-name="Path 337" d="M310.658,404.06a13.34,13.34,0,0,1-5.058,10.227,16.184,16.184,0,0,1-2.2,1.549,20.027,20.027,0,0,1-20.27-.146c-4.266-2.633-7.009-6.856-7.009-11.628Z" transform="translate(-276.12 -404.06)" fill="#961b1e"/>
        <path id="Path_338" data-name="Path 338" d="M310.551,404.19c0,3.577-7.606,6.473-16.985,6.473s-16.985-2.895-16.985-6.473" transform="translate(-276.3 -404.111)" fill="#fff"/>
        <path id="Path_339" data-name="Path 339" d="M307.89,422.413a20.027,20.027,0,0,1-20.27-.146c1.688-.8,5.528-1.361,10-1.361C302.351,420.908,306.385,421.535,307.89,422.413Z" transform="translate(-280.611 -410.638)" fill="#fff"/>
      </g>
    </g>
  </g>
</svg>
