<svg xmlns="http://www.w3.org/2000/svg" xmlns:xlink="http://www.w3.org/1999/xlink" width="1920" height="1080" viewBox="0 0 1920 1080">
  <defs>
    <linearGradient id="linear-gradient" x1="0.343" x2="1.054" y2="1.161" gradientUnits="objectBoundingBox">
      <stop offset="0" stop-color="#97dffc"/>
      <stop offset="1" stop-color="#6236c1"/>
    </linearGradient>
  </defs>
  <g id="contact_bg" transform="translate(0 -3368)">
    <rect id="Rectangle_139" data-name="Rectangle 139" width="1920" height="1080" transform="translate(0 3368)" fill="rgba(255,255,255,0)"/>
    <g id="Group_21" data-name="Group 21" transform="translate(1803.338 6599.86) rotate(180)">
      <path id="Subtraction_2" data-name="Subtraction 2" d="M748.238,886.195H565.379V17.693c5.461,0,14.448,3.462,28.281,10.893,12.638,6.789,28.018,16.15,45.827,26.99,20.475,12.462,43.682,26.587,68.369,40.2,28.538,15.741,53.755,27.864,77.092,37.062,36.482,14.378,88.938,22.566,144.473,31.233,38.363,5.988,78.029,12.179,114.433,20.76a472.187,472.187,0,0,1,51.608,14.941c8.187,2.945,15.9,6.084,22.918,9.33a199.572,199.572,0,0,1,20.43,10.845H1196.5a6.5,6.5,0,1,1,0,13.007h-39.656c2.641,2.265,5.144,4.615,7.44,6.986H1215.5a6.5,6.5,0,1,1,0,13.005h-40.639c1.524,2.276,2.939,4.627,4.207,6.988H1137.52a6.5,6.5,0,0,0,0,13.005h47.271a317.25,317.25,0,0,1,10.475,32.354,333.983,333.983,0,0,1,6.97,32.958c1.735,10.868,2.981,22.093,3.706,33.362.7,10.963.934,22.255.682,33.565-.948,42.419-8.593,86.923-22.723,132.274a601.434,601.434,0,0,1-23.273,62.138,636.976,636.976,0,0,1-28.656,57.333c-10.012,17.735-20.818,34.868-32.119,50.922a504.04,504.04,0,0,1-33.664,42.907h12.354a6.5,6.5,0,0,1,0,13h-24.308c-2.307,2.4-4.636,4.751-6.923,7H990.555a6.5,6.5,0,0,0,0,12.995h42.687c-2.852,2.463-5.7,4.817-8.473,7h81.764a6.5,6.5,0,0,1,0,13h-99.308a439.155,439.155,0,0,1-57.613,33.813,487.464,487.464,0,0,1-64.292,26.02,477.075,477.075,0,0,1-68.086,16.718A419.11,419.11,0,0,1,748.238,886.195Z" transform="translate(-682.001 2192.665)" fill="url(#linear-gradient)"/>
    </g>
  </g>
</svg>
