<svg id="MobileBg" xmlns="http://www.w3.org/2000/svg" xmlns:xlink="http://www.w3.org/1999/xlink" width="375" height="855.047" viewBox="0 0 375 855.047">
  <defs>
    <linearGradient id="linear-gradient" x1="0.866" y1="0.974" x2="-0.061" y2="0.09" gradientUnits="objectBoundingBox">
      <stop offset="0" stop-color="#97dffc"/>
      <stop offset="1" stop-color="#6236c1"/>
    </linearGradient>
  </defs>
  <rect id="Rectangle_127" data-name="Rectangle 127" width="375" height="812" fill="rgba(255,255,255,0)"/>
  <path id="Bg" d="M-2304.7,383.424a113.613,113.613,0,0,1-38.532-7.039,152.136,152.136,0,0,1-30.854-15.485,177.509,177.509,0,0,1-20.486-15.485c-4.687-4.123-7.317-6.921-7.427-7.038V.378l.03,0c1.254-.063,8.064-.375,19.046-.375a676.278,676.278,0,0,1,81.546,5.065c40.768,5.039,77.85,13.555,110.216,25.313H-2203a3,3,0,0,0-3,3,3,3,0,0,0,3,3h27.289c3.147,1.3,6.281,2.647,9.317,4h60.894a3.5,3.5,0,0,1,3.5,3.5,3.5,3.5,0,0,1-3.5,3.5h-46.159c2.6,1.319,5.173,2.665,7.633,4h26.526a4.505,4.505,0,0,1,4.5,4.5,4.505,4.505,0,0,1-4.5,4.5h-11.136a226.021,226.021,0,0,1,21.8,15.565,182.359,182.359,0,0,1,18.3,17,152.157,152.157,0,0,1,14.741,18.4,134.089,134.089,0,0,1,11.11,19.777,127.159,127.159,0,0,1,7.409,21.118,131.076,131.076,0,0,1,3.637,22.429,146.351,146.351,0,0,1-.2,23.708,174.2,174.2,0,0,1-4.114,24.956,112.683,112.683,0,0,1-9.224,25.008,127.174,127.174,0,0,1-14.394,22.035H-2103.5a2.5,2.5,0,0,0-2.5,2.5,2.5,2.5,0,0,0,2.5,2.5h19.7c-1.784,2.017-3.667,4.036-5.6,6h8.4a3,3,0,0,1,3,3,3,3,0,0,1-3,3h-14.6c-2.188,2.016-4.489,4.035-6.836,6h40.932a4.5,4.5,0,0,1,4.5,4.5,4.5,4.5,0,0,1-4.5,4.5h-52.463c-2.747,2-5.638,4.023-8.592,6H-2168a4,4,0,0,0-4,4,4,4,0,0,0,4,4h32.794a469.189,469.189,0,0,1-48.389,24.834c-16.584,7.475-33.159,14.206-49.187,20.715l-.009,0c-11.123,4.517-21.628,8.783-31.52,13.047a104.239,104.239,0,0,1-20.6,6.477A100.318,100.318,0,0,1-2304.7,383.424Z" transform="translate(-2027.254 855.047) rotate(180)" fill="url(#linear-gradient)"/>
  <g id="landing_illustration" transform="translate(124 574)">
    <path id="Path_277" data-name="Path 277" d="M619.009,704.978s-1.278.438-3.355,1.058c-4.593,1.377-13.091,3.661-20.293,4.118-6.2.4-11.44-.558-12.4-4.6A4.275,4.275,0,0,1,584.4,701.2c3.79-3.514,13.69-4.773,21.542-5.2,2.217-.121,4.268-.177,5.975-.2,2.9-.038,4.8.021,4.8.021l.046.177Z" transform="translate(-480.252 -537.306)" fill="#a0616a"/>
    <g id="body" transform="translate(48.454 0)">
      <path id="neck" d="M574.73,260.562s3.719,28.036-2,31.182,34.043,3.433,34.043,3.433-8.868-24.317-4.863-31.755Z" transform="translate(-520.902 -218.909)" fill="#f5bbba"/>
      <g id="torso" transform="translate(0 61.647)">
        <path id="Path_276" data-name="Path 276" d="M563.662,349.808l-3.307,15.059-6.993,31.86-.209,1.745-2.413,20.2-1.605,13.419-1.076,9.014c-6.544,3.363-11.287,5.685-11.287,5.685s-.408-2.045-1.066-4.663c-4.593,1.377-13.091,3.661-20.293,4.118,2.623,2.923,3.828,5.669,2.193,7.7-4.934,6.109-25.3-6.689-32.426-11.462a19.288,19.288,0,0,0-.188,3.452l-5.452-4.193.539-9.647.91-16.323,1.143-20.471a21.49,21.49,0,0,1-.9-2.692c-1.67-5.938-3.7-17.794-5.25-27.737-1.251-8-2.19-14.764-2.389-16.2-.027-.188-.04-.285-.04-.285l30.18-13.336c2.145,4.974,12.16,6.469,12.16,6.469a33.589,33.589,0,0,0,14.8-4.947Z" transform="translate(-448.756 -335.045)" fill="#d0cde1"/>
        <g id="right-arm" transform="translate(82.006 13.371)">
          <path id="Path_279" data-name="Path 279" d="M740.912,444.748c-2.005,1.78-6.975,4.462-13,7.365-2.241,1.079-4.627,2.19-7.06,3.3-5.807,2.638-11.888,5.251-16.905,7.363-6.528,2.747-11.259,4.644-11.259,4.644s-.407-1.671-1.063-3.809c-.878-2.861-2.2-6.56-3.58-8.2-.048-.057-.1-.11-.145-.162a1.758,1.758,0,0,0-1.2-.684l19.925-10.115,8.611-4.372-6.2-12.128-7.781-15.213,4.7-12.237,4.72-12.3s4.966-3.134,8.846,0,2.929,5.236,6.675,12.538c.56,1.092,1.138,2.23,1.727,3.405C735.619,419.488,745.225,440.921,740.912,444.748Z" transform="translate(-686.697 -386.803)" fill="#d0cde1"/>
        </g>
        <g id="left-arm" transform="translate(0 13.62)">
          <path id="Path_281" data-name="Path 281" d="M428.3,469.033a12.831,12.831,0,0,0-2.174.177c-6.171,1.06-7.991,6.646-8.509,10.388a19.284,19.284,0,0,0-.188,3.452l-5.452-4.193-1.986-1.527a36.2,36.2,0,0,1-12.734-8.12,64.017,64.017,0,0,1-8.576-10.171,89.683,89.683,0,0,1-6.636-11.382,8.371,8.371,0,0,1-.115-7.1l6.751-15.046,9.868-21.99q.109-.785.239-1.535c1.957-11.22,7.2-16.2,7.2-16.2h4.005l2.679,16.2L416,422.117l-2.333,7.607-5.39,17.569,5.151,5.594Z" transform="translate(-381.194 -385.785)" fill="#d0cde1"/>
        </g>
      </g>
      <g id="head" transform="translate(46.914)">
        <circle id="Ellipse_37" data-name="Ellipse 37" cx="19.739" cy="19.739" r="19.739" transform="translate(1.907 12.044)" fill="#f5bbba"/>
        <path id="Path_278" data-name="Path 278" d="M561.192,118.5l-3.691-1.478s7.717-8.5,18.454-7.757l-3.02-3.325s7.382-2.955,14.092,4.8c3.528,4.078,7.609,8.871,10.153,14.271h3.953l-1.65,3.632,5.774,3.632-5.926-.652a20.3,20.3,0,0,1,.161,6.025,7.8,7.8,0,0,1-2.855,5.1h0s-4.577-9.474-4.577-10.952v3.694s-3.691-3.325-3.691-5.541l-2.013,2.586-1.007-4.063-12.414,4.063,2.013-3.325-7.717,1.108,3.02-4.063s-8.724,4.8-9.059,8.865a19.509,19.509,0,0,1-2.889,7.914S551.461,124.042,561.192,118.5Z" transform="translate(-555.966 -105.389)" fill="#2f2e41"/>
        <path id="Path_272" data-name="Path 272" d="M531.822,307.6h-.5l-9.659,8.479c-9.306-4.3-16.137,0-16.137,0l-10.13-8.131-1.021.127a18.727,18.727,0,0,0,37.446-.475Zm-18.754,11.732c-3.643,0-6.6-.728-6.6-1.626s2.953-1.626,6.6-1.626,6.6.728,6.6,1.626S516.711,319.334,513.068,319.334Z" transform="translate(-491.01 -269.55)" fill="#2f2d41"/>
        <ellipse id="Ellipse_34" data-name="Ellipse 34" cx="1.764" cy="3.334" rx="1.764" ry="3.334" transform="translate(1.389 33.064)" fill="#f5bbba"/>
        <ellipse id="Ellipse_42" data-name="Ellipse 42" cx="1.764" cy="3.334" rx="1.764" ry="3.334" transform="translate(38.776 33.064)" fill="#f5bbba"/>
      </g>
    </g>
    <path id="Path_280" data-name="Path 280" d="M542.558,710.927c-4.934,6.109-25.3-6.689-32.426-11.462-1.552-1.039-2.475-1.7-2.475-1.7l6.517-8.692,2.064-2.751s1.847.98,4.577,2.574c.1.059.2.118.3.177,2.354,1.382,5.31,3.189,8.292,5.2a62.571,62.571,0,0,1,10.957,8.949C542.988,706.154,544.193,708.9,542.558,710.927Z" transform="translate(-425.256 -530.383)" fill="#a0616a"/>
    <path id="Path_282" data-name="Path 282" d="M548.907,494.594l3.424,3.994c1.272-.243,2.6-.528,3.969-.848l-.983-3.147,2.4,2.805c14.495-3.565,32.461-10.5,32.461-10.5s-19.4,1.422-33.878-1.742a13.781,13.781,0,0,0-15.63,7.785c-1.528,3.492-1.288,6.518,4.132,6.518a35.8,35.8,0,0,0,5.463-.514Z" transform="translate(-448.816 -382.979)" fill="#97dffc"/>
    <path id="Path_283" data-name="Path 283" d="M518,753.47V755.1a3.582,3.582,0,0,1-.244,1.307,3.678,3.678,0,0,1-.26.537,3.607,3.607,0,0,1-3.1,1.761H394.532a3.607,3.607,0,0,1-3.1-1.761,3.671,3.671,0,0,1-.26-.537,3.581,3.581,0,0,1-.244-1.307V753.47a3.6,3.6,0,0,1,3.605-3.605h6.909v-.76a.15.15,0,0,1,.15-.15H405.2a.15.15,0,0,1,.15.15v.76H407.6v-.76a.15.15,0,0,1,.15-.15h3.605a.15.15,0,0,1,.15.15v.76h2.255v-.76a.15.15,0,0,1,.15-.15h3.605a.15.15,0,0,1,.15.15v.76h2.252v-.76a.15.15,0,0,1,.15-.15h3.605a.15.15,0,0,1,.15.15v.76h2.252v-.76a.15.15,0,0,1,.15-.15h3.605a.15.15,0,0,1,.15.15v.76h2.255v-.76a.15.15,0,0,1,.15-.15h3.605a.15.15,0,0,1,.15.15v.76h2.252v-.76a.15.15,0,0,1,.15-.15h28.239a.15.15,0,0,1,.15.15v.76h2.255v-.76a.15.15,0,0,1,.15-.15h3.605a.152.152,0,0,1,.15.15v.76h2.252v-.76a.15.15,0,0,1,.15-.15H479.1a.15.15,0,0,1,.15.15v.76H481.5v-.76a.15.15,0,0,1,.15-.15h3.605a.15.15,0,0,1,.15.15v.76h2.255v-.76a.15.15,0,0,1,.15-.15h3.605a.15.15,0,0,1,.148.15v.76h2.255v-.76a.15.15,0,0,1,.15-.15h3.605a.15.15,0,0,1,.15.15v.76h2.252v-.76a.15.15,0,0,1,.15-.15h3.605a.15.15,0,0,1,.15.15v.76H514.4A3.6,3.6,0,0,1,518,753.47Z" transform="translate(-339.86 -576.202)" fill="#3f3d56"/>
    <rect id="Rectangle_147" data-name="Rectangle 147" width="196.76" height="0.537" transform="translate(16.24 180.205)" fill="#3f3d56"/>
    <path id="Path_284" data-name="Path 284" d="M520.9,507.636H476.222v-.921H455.964v.921H411.1a3.022,3.022,0,0,0-3.022,3.022v61.179a3.022,3.022,0,0,0,3.022,3.022H520.9a3.022,3.022,0,0,0,3.022-3.022V510.658A3.022,3.022,0,0,0,520.9,507.636Z" transform="translate(-352.408 -398.986)" fill="#3f3d56"/>
    <circle id="Ellipse_38" data-name="Ellipse 38" cx="6.711" cy="6.711" r="6.711" transform="translate(106.97 123.297)" fill="none" stroke="#d0cde1" stroke-miterlimit="10" stroke-width="2"/>
    <circle id="Ellipse_39" data-name="Ellipse 39" cx="6.711" cy="6.711" r="6.711" transform="translate(104.822 125.713)" fill="#d0cde1"/>
    <rect id="Rectangle_148" data-name="Rectangle 148" width="7.516" height="7.516" transform="translate(21.594 177.493)" fill="#d0cde1"/>
    <path id="Path_285" data-name="Path 285" d="M292.136,744.612v9.127h9.127v-9.127Zm8.729,8.729h-8.335v-8.332h8.335Z" transform="translate(-267.588 -573.024)" fill="#3f3d56"/>
    <rect id="Rectangle_149" data-name="Rectangle 149" width="7.516" height="7.516" transform="translate(195.538 177.493)" fill="#d0cde1"/>
    <path id="Path_286" data-name="Path 286" d="M940.136,744.612v9.127h9.127v-9.127Zm8.729,8.729h-8.335v-8.332h8.335Z" transform="translate(-741.645 -573.024)" fill="#3f3d56"/>
    <circle id="clock-bg" cx="21.297" cy="21.297" r="21.297" transform="translate(4.091 19.175)" fill="#97dffc"/>
    <g id="tip" transform="translate(28.792 25.784)">
      <rect id="rect234" width="1.936" height="10.971" transform="translate(0.646)" fill="#3f3d56"/>
      <path id="Path_288" data-name="Path 288" d="M308.666,239.654a1.613,1.613,0,0,0-1.936,0,1.661,1.661,0,0,0-.461.542,1.614,1.614,0,1,0,2.4-.542Zm-.968,2.259a.971.971,0,0,1-.968-.968.986.986,0,0,1,.171-.549.967.967,0,1,1,.8,1.517Z" transform="translate(-306.084 -228.683)" fill="#3f3d56"/>
    </g>
    <g id="clock" transform="translate(0 5.157)">
      <path id="Path_287" data-name="Path 287" d="M253.44,161.377a23.02,23.02,0,0,0-5.808,0,22.647,22.647,0,0,0-18.687,15.76,22.34,22.34,0,0,0-.981,5.815c-.01.274-.016.552-.016.829a22.611,22.611,0,0,0,22.588,22.588c.481,0,.962-.016,1.436-.045a22.341,22.341,0,0,0,3.311-.458,22.591,22.591,0,0,0-1.843-44.489Zm4.166,43.179h0a21.718,21.718,0,0,1-5.631,1.12c-.474.032-.955.048-1.436.048a21.97,21.97,0,0,1-21.943-21.943c0-.278.006-.555.016-.829a21.943,21.943,0,1,1,29,21.6Z" transform="translate(-220.63 -151.19)" fill="#3f3d56"/>
      <rect id="Rectangle_150" data-name="Rectangle 150" width="0.645" height="4.518" transform="translate(29.583 11.939)" fill="#3f3d56"/>
      <rect id="Rectangle_151" data-name="Rectangle 151" width="0.645" height="4.518" transform="translate(15.075 18.216) rotate(-45)" fill="#3f3d56"/>
      <rect id="Rectangle_152" data-name="Rectangle 152" width="0.645" height="4.518" transform="translate(9.254 32.914) rotate(-90)" fill="#3f3d56"/>
      <rect id="Rectangle_153" data-name="Rectangle 153" width="0.645" height="4.518" transform="translate(15.531 47.422) rotate(-135)" fill="#3f3d56"/>
      <rect id="Rectangle_154" data-name="Rectangle 154" width="0.645" height="4.518" transform="translate(41.543 21.41) rotate(-135)" fill="#3f3d56"/>
      <rect id="Rectangle_155" data-name="Rectangle 155" width="0.645" height="4.518" transform="translate(46.04 32.914) rotate(-90)" fill="#3f3d56"/>
      <rect id="Rectangle_156" data-name="Rectangle 156" width="0.645" height="4.518" transform="translate(41.087 44.228) rotate(-45)" fill="#3f3d56"/>
      <rect id="Rectangle_157" data-name="Rectangle 157" width="0.645" height="4.518" transform="translate(29.583 48.726)" fill="#3f3d56"/>
      <rect id="Rectangle_158" data-name="Rectangle 158" width="5.808" height="5.808" transform="translate(27.002 4.518)" fill="#3f3d56"/>
      <ellipse id="Ellipse_41" data-name="Ellipse 41" cx="7.745" cy="2.743" rx="7.745" ry="2.743" transform="translate(22.161)" fill="#3f3d56"/>
      <rect id="Rectangle_160" data-name="Rectangle 160" width="60.665" height="0.645" transform="translate(0 54.626)" fill="#3f3d56"/>
    </g>
  </g>
</svg>
