<svg xmlns="http://www.w3.org/2000/svg" xmlns:xlink="http://www.w3.org/1999/xlink" width="1924.158" height="1080" viewBox="-10 0 1924.158 1080">
  <defs>
    <linearGradient id="linear-gradient" x1="0.318" y1="0.217" x2="0.942" y2="1.087" gradientUnits="objectBoundingBox">
      <stop offset="0" stop-color="#97dffc"/>
      <stop offset="1" stop-color="#6236c1"/>
    </linearGradient>
  </defs>
  <g id="MainBg" transform="translate(0 0.036)">
    <rect id="Rectangle_126" data-name="Rectangle 126" width="1920" height="1079.963" fill="rgba(255,255,255,0)"/>
    <path id="Background" d="M469.557,978.368a215.47,215.47,0,0,1-23.538-1.257,184.5,184.5,0,0,1-22.83-3.956,166.018,166.018,0,0,1-22.024-6.934,159.246,159.246,0,0,1-21.118-10.191,447.738,447.738,0,0,1-38.887-25.1A351.355,351.355,0,0,1,308.085,903.8a303.92,303.92,0,0,1-27.817-29.58,295.857,295.857,0,0,1-23.114-32.476,325.33,325.33,0,0,1-18.963-35.809,399.831,399.831,0,0,1-15.366-39.578c-8.805-26.638-16.054-56.8-22.159-92.217a12.479,12.479,0,0,0,9.386-4.964l37.913-50.313a12.5,12.5,0,0,0-9.976-20.028,12.614,12.614,0,0,0-5.5,1.266,12.366,12.366,0,0,0-4.5,3.713L196.209,646c-1.723-11.845-3.4-24.584-4.974-37.863l-35.941,47.7a8.418,8.418,0,0,1-3.059,2.525,8.588,8.588,0,0,1-3.74.861,8.5,8.5,0,0,1-6.786-13.622l46.766-62.06c-.41-3.861-.823-7.854-1.228-11.868l30.738-40.789a2.5,2.5,0,1,0-4-3.011l-27.472,36.455c-.342-3.487-.665-6.85-.962-10l-30.968,41.1a4,4,0,1,1-6.4-4.819l36.267-48.129c-1.626-17.925-3.3-37.949-5.109-61.214-2.5-32.127-4.156-62.495-4.918-90.26-.75-27.331-.666-53.285.25-77.14,1.772-46.088,6.642-86.636,14.889-123.96a520.1,520.1,0,0,1,14.079-51.34c5.211-15.787,11.141-31.245,18.129-47.257,6.336-14.521,13.5-29.383,21.9-45.435,7.213-13.785,15.281-28.36,25.39-45.871H983.158l-3.181,824.4c-2.086,1.388-9.519,5.388-33.419,12.558l15.894-21.093a6,6,0,1,0-9.591-7.228l-25.426,33.742c-4.128,1.113-8.495,2.26-12.98,3.408l-37.71,50.042a6,6,0,1,1-9.59-7.228l28.8-38.224c-3.706.894-7.513,1.8-11.315,2.688l-65.1,86.385a9.892,9.892,0,0,1-3.6,2.97,10.1,10.1,0,0,1-4.4,1.014,9.912,9.912,0,0,1-6.013-2.015,10.016,10.016,0,0,1-1.969-14.011l50.873-67.511c-4.006.878-7.893,1.721-11.551,2.506-10.453,2.244-21.432,5.151-33.563,8.889-10.84,3.34-22.376,7.277-35.269,12.037-24.016,8.866-48.437,18.985-74.292,29.7l0,0c-38.247,15.848-77.8,32.235-116.693,44.6a503.411,503.411,0,0,1-57.744,15.006c-9.7,1.861-19.19,3.286-28.2,4.234A264.708,264.708,0,0,1,469.557,978.368ZM979.976,825.474h0l0-1.076c.182-.122.332-.228.459-.326a2.542,2.542,0,0,0-.461,1.4Zm.466-1.407h0a.978.978,0,0,1,.343-.337s.005,0,.006,0c.007.02-.081.128-.347.333Z" transform="translate(941 -0.037)" fill="url(#linear-gradient)"/>
  </g>
</svg>
