<svg xmlns="http://www.w3.org/2000/svg" xmlns:xlink="http://www.w3.org/1999/xlink" width="1932.604" height="1080" viewBox="10 0 1932.604 1080">
  <defs>
    <linearGradient id="linear-gradient" x1="0.343" x2="1.054" y2="1.161" gradientUnits="objectBoundingBox">
      <stop offset="0" stop-color="#97dffc"/>
      <stop offset="1" stop-color="#6236c1"/>
    </linearGradient>
  </defs>
  <g id="skills-bg" transform="translate(-5.396 -2113)">
    <rect id="Rectangle_137" data-name="Rectangle 137" width="1920" height="1080" transform="translate(18 2113)" fill="rgba(255,255,255,0)"/>
    <path id="bg" d="M701.491,886.195H691.26V120.759h.011c3.237,0,5-.487,5.246-1.449.233-.922-.914-2.269-3.411-4.006a57.2,57.2,0,0,0-5.257-3.153c-.3-.165-.449-.243-.451-.252h0c.025,0,.34.143,1.028.456l.013.006c10.315,4.686,26.286,11.578,47.468,20.482,34.2,14.378,83.381,22.566,135.447,31.234,31.778,5.291,64.635,10.761,95.42,17.9,16.625,3.854,31.116,7.829,44.3,12.152,7.166,2.349,14.008,4.831,20.336,7.376,6.654,2.677,12.965,5.514,18.757,8.433H974.857a2.5,2.5,0,1,0,0,5.006h84.622c2.825,1.622,5.578,3.308,8.181,5.009h53.681a6.5,6.5,0,1,1,0,13.007h-36.771c2.132,1.951,4.169,3.965,6.055,5.986h50.526a3.5,3.5,0,1,1,0,7h-44.574a87.569,87.569,0,0,1,8.825,13.988h-38.545a6.5,6.5,0,1,0,0,13.005h43.912a332.756,332.756,0,0,1,10.066,33.344c2.712,11.031,4.928,22.463,6.586,33.979,1.613,11.2,2.74,22.77,3.352,34.394.594,11.3.717,22.934.364,34.59a480.3,480.3,0,0,1-7.255,68.89,566.184,566.184,0,0,1-16.257,67.041,633.868,633.868,0,0,1-23.292,63.437c-8.485,19.806-18.026,39.346-28.36,58.078-19.464,35.284-41.613,67.464-64.053,93.061h20.83a2.5,2.5,0,0,1,0,5H987.46c-2.182,2.4-4.384,4.754-6.544,7H902.574a4,4,0,1,0,0,7.995h70.358c-3.707,3.57-7.41,6.933-11.006,10h89.068a6.5,6.5,0,0,1,0,13H945.634a405.23,405.23,0,0,1-54.193,34.207,440.778,440.778,0,0,1-60.593,26.338,424.675,424.675,0,0,1-64.236,16.931A369.251,369.251,0,0,1,701.491,886.195Z" transform="translate(-682 2193)" fill="url(#linear-gradient)"/>
  </g>
</svg>
